<svg width="394" height="333" viewBox="0 0 394 333" fill="none" xmlns="http://www.w3.org/2000/svg">
<path d="M394 166.5C394 258.455 305.8 333 197 333C88.1999 333 0 258.455 0 166.5C0 74.5446 88.1999 0 197 0C305.8 0 394 74.5446 394 166.5Z" fill="#43BEE5" fill-opacity="0.16"/>
<path d="M91.68 193.4C89.2 193.4 86.84 192.68 84.6 191.24C82.36 189.8 80.68 187.68 79.56 184.88C79.16 183.84 78.88 182.72 78.72 181.52C78.64 180.32 78.6 179.16 78.6 178.04V176.48C78.6 175.92 78.64 175.4 78.72 174.92C78.88 174.44 79.2 174.2 79.68 174.2C79.84 174.2 79.92 174.28 79.92 174.44C79.92 174.92 79.88 175.4 79.8 175.88C79.8 176.36 79.8 176.84 79.8 177.32C79.8 181.08 80.72 183.92 82.56 185.84C84.48 187.76 86.84 188.72 89.64 188.72C92.44 188.72 95.16 187.92 97.8 186.32C100.44 184.72 102.88 182.68 105.12 180.2C106.96 178.2 108.76 175.6 110.52 172.4C112.36 169.2 114.24 165.76 116.16 162.08C113.6 162.16 110.92 162.28 108.12 162.44C105.32 162.52 102.76 162.76 100.44 163.16C99.72 163.24 99.52 163.04 99.84 162.56C100.16 162.08 100.76 161.48 101.64 160.76C102.52 160.04 103.44 159.4 104.4 158.84C105.44 158.28 106.28 157.96 106.92 157.88C108.28 157.96 109.96 158.04 111.96 158.12C114.04 158.12 116.08 158.16 118.08 158.24C119.84 155.04 121.52 151.8 123.12 148.52C124.8 145.16 126.36 142.04 127.8 139.16C128.6 137.56 129.64 135.96 130.92 134.36C132.28 132.68 133.76 131.2 135.36 129.92C137.04 128.64 138.76 127.84 140.52 127.52C136.28 127.68 131.88 127.8 127.32 127.88C122.84 127.96 118.56 128.56 114.48 129.68C112.64 130.16 111 130.8 109.56 131.6C108.12 132.4 107.08 133.4 106.44 134.6C105.8 135.8 105.48 137.12 105.48 138.56C105.48 140.56 106.04 142 107.16 142.88C107.24 142.96 107.28 143.04 107.28 143.12C107.28 143.28 107.12 143.44 106.8 143.6C106.56 143.76 106.32 143.8 106.08 143.72C105.36 143.32 104.48 142.36 103.44 140.84C102.4 139.24 101.76 137.92 101.52 136.88C101.28 135.92 101.16 135.04 101.16 134.24C101.16 132.16 101.84 130.56 103.2 129.44C104.56 128.24 106.28 127.4 108.36 126.92C110.44 126.36 112.56 126.04 114.72 125.96C116.88 125.8 118.8 125.72 120.48 125.72H133.8C136.84 125.72 139.48 125.72 141.72 125.72C143.96 125.64 145.76 125.48 147.12 125.24C147.28 125.24 147.4 125.24 147.48 125.24C147.56 125.16 147.64 125.12 147.72 125.12C148.2 125.12 148.44 125.28 148.44 125.6C148.44 125.92 148.28 126.24 147.96 126.56C147.72 126.8 147.52 126.92 147.36 126.92C144.88 127.16 142.56 128.24 140.4 130.16C138.24 132.08 136.28 134.56 134.52 137.6C134.04 138.48 133.16 140.12 131.88 142.52C130.6 144.92 129.2 147.56 127.68 150.44C126.16 153.32 124.76 156 123.48 158.48C125 158.56 126.24 158.64 127.2 158.72C128.24 158.72 128.84 158.72 129 158.72H146.64C147.36 158.72 148.68 158.6 150.6 158.36C152.6 158.12 154.12 157.76 155.16 157.28C157.32 153.12 159.52 149 161.76 144.92C164 140.84 166.08 137.2 168 134C170 130.72 171.56 128.36 172.68 126.92C174.04 126.36 175.56 125.68 177.24 124.88C179 124.08 180.72 123.36 182.4 122.72C184.16 122.08 185.72 121.76 187.08 121.76C187.48 121.76 187.88 121.88 188.28 122.12C188.76 122.36 189 122.6 189 122.84C189 123.24 188.2 123.44 186.6 123.44C185.8 123.44 184.96 123.6 184.08 123.92C183.2 124.16 182.08 125 180.72 126.44C179.6 127.56 178.12 129.48 176.28 132.2C174.52 134.84 172.6 137.96 170.52 141.56C168.44 145.08 166.32 148.8 164.16 152.72C162.08 156.64 160.12 160.48 158.28 164.24C156.44 167.92 154.88 171.28 153.6 174.32C152.32 177.28 151.48 179.56 151.08 181.16C151 181.72 150.88 182.36 150.72 183.08C150.64 183.72 150.6 184.36 150.6 185C150.6 186.28 150.92 187.4 151.56 188.36C152.2 189.32 153.4 189.8 155.16 189.8C156.44 189.8 157.72 189.56 159 189.08C160.36 188.6 161.56 188.08 162.6 187.52C165.48 185.92 168.08 183.76 170.4 181.04C172.72 178.24 174.6 175.88 176.04 173.96C176.28 173.64 176.44 173.48 176.52 173.48C176.76 173.48 176.88 173.76 176.88 174.32C176.88 174.8 176.76 175.24 176.52 175.64C175 177.8 173 180.32 170.52 183.2C168.04 186 165.16 188.32 161.88 190.16C159.32 191.52 156.4 192.2 153.12 192.2C150.64 192.2 148.48 191.32 146.64 189.56C144.88 187.72 144 185.52 144 182.96C144 181.68 144.24 180.4 144.72 179.12C145.44 177.28 146.6 174.64 148.2 171.2C149.88 167.76 151.76 163.96 153.84 159.8C153.04 160.52 152.12 161.16 151.08 161.72C150.04 162.28 149.04 162.52 148.08 162.44C145.6 162.2 142.76 162.08 139.56 162.08C136.44 162 132.4 161.96 127.44 161.96H121.68C119.44 166.52 117.12 171 114.72 175.4C112.32 179.72 109.84 183.28 107.28 186.08C105.28 188.24 102.88 190 100.08 191.36C97.28 192.72 94.48 193.4 91.68 193.4Z" fill="black" fill-opacity="0.64"/>
<path d="M176.344 191.24C175.064 191.24 173.904 191 172.864 190.52C171.904 189.96 171.424 188.8 171.424 187.04C171.424 184.24 172.144 181.44 173.584 178.64C175.024 175.76 176.504 173.24 178.024 171.08C179.384 169.24 180.904 167.52 182.584 165.92C184.344 164.24 186.224 162.8 188.224 161.6C189.504 160.8 191.224 159.96 193.384 159.08C195.624 158.12 197.504 157.64 199.024 157.64C200.304 157.64 201.424 158 202.384 158.72C203.344 159.36 203.824 160.56 203.824 162.32C203.824 165.04 203.104 167.84 201.664 170.72C200.304 173.52 198.864 176 197.344 178.16C196.624 179.12 195.904 180.04 195.184 180.92C194.464 181.72 193.664 182.56 192.784 183.44C195.744 183.44 198.464 182.6 200.944 180.92C203.424 179.16 205.584 177.04 207.424 174.56L207.664 174.32C207.904 174.32 208.024 174.56 208.024 175.04C208.024 175.6 207.864 176.12 207.544 176.6C205.944 178.84 203.944 180.84 201.544 182.6C199.144 184.28 196.424 185.12 193.384 185.12C193.064 185.12 192.744 185.12 192.424 185.12C192.104 185.12 191.784 185.08 191.464 185C186.984 189.16 181.944 191.24 176.344 191.24ZM179.464 189.2C180.584 189.2 181.784 188.8 183.064 188C184.424 187.2 185.464 186.44 186.184 185.72C187.544 184.36 188.784 182.92 189.904 181.4C191.024 179.8 192.064 178.2 193.024 176.6C194.144 174.68 195.264 172.4 196.384 169.76C197.504 167.12 198.064 164.64 198.064 162.32C198.064 160.48 197.424 159.56 196.144 159.56C195.104 159.56 193.824 160 192.304 160.88C190.864 161.76 189.784 162.56 189.064 163.28C186.344 166.08 184.064 169.12 182.224 172.4C181.184 174.24 180.064 176.4 178.864 178.88C177.664 181.36 177.064 183.64 177.064 185.72C177.064 186.04 177.064 186.36 177.064 186.68C177.144 186.92 177.224 187.2 177.304 187.52C177.624 188.64 178.344 189.2 179.464 189.2Z" fill="black" fill-opacity="0.64"/>
<path d="M206.902 192.8C206.582 192.8 206.582 192.44 206.902 191.72C207.302 191 207.662 190.2 207.982 189.32C208.382 188.44 208.782 187.48 209.182 186.44C209.982 184.52 210.862 182.36 211.822 179.96C212.782 177.56 213.702 175.24 214.582 173C215.462 170.68 216.222 168.72 216.862 167.12C217.582 165.44 218.062 164.36 218.302 163.88C217.182 165.08 215.822 166.6 214.222 168.44C212.702 170.2 211.262 171.92 209.902 173.6C208.542 175.28 207.502 176.6 206.782 177.56C206.542 177.88 206.342 178.04 206.182 178.04C206.022 178.04 205.942 177.84 205.942 177.44C205.942 176.8 206.142 176.2 206.542 175.64C208.062 173.72 209.742 171.56 211.582 169.16C213.502 166.76 215.222 164.56 216.742 162.56C218.262 160.48 219.222 159.12 219.622 158.48C220.502 158.32 221.782 158.08 223.462 157.76C225.222 157.44 226.422 157 227.062 156.44C227.302 156.2 227.542 156.08 227.782 156.08C227.942 156.08 228.022 156.24 228.022 156.56C228.102 156.8 228.022 157.08 227.782 157.4C227.302 157.96 226.462 159.28 225.262 161.36C224.142 163.36 222.902 165.6 221.542 168.08C220.262 170.56 219.062 172.8 217.942 174.8C219.222 173.28 220.462 171.84 221.662 170.48C222.942 169.12 223.822 168.16 224.302 167.6C225.262 166.64 226.582 165.44 228.262 164C229.942 162.56 231.702 161.24 233.542 160.04C235.382 158.84 236.982 158.16 238.342 158C238.662 157.92 238.942 157.88 239.182 157.88C239.422 157.88 239.662 157.88 239.902 157.88C241.422 157.88 242.182 158.44 242.182 159.56C242.182 160.04 242.062 160.6 241.822 161.24C241.582 161.88 241.262 162.52 240.862 163.16C240.382 164.12 239.582 165.64 238.462 167.72C237.342 169.72 236.342 171.56 235.462 173.24L241.102 167.6C242.062 166.64 243.382 165.44 245.062 164C246.742 162.56 248.502 161.24 250.342 160.04C252.182 158.84 253.782 158.16 255.142 158C255.462 157.92 255.742 157.88 255.982 157.88C256.302 157.88 256.542 157.88 256.702 157.88C258.462 157.88 259.342 158.52 259.342 159.8C259.342 160.76 258.822 162.04 257.782 163.64C257.222 164.52 256.342 166 255.142 168.08C253.942 170.16 252.702 172.44 251.422 174.92C250.222 177.32 249.182 179.56 248.302 181.64C247.422 183.72 246.982 185.24 246.982 186.2C246.982 187.32 247.542 187.88 248.662 187.88C249.702 187.88 251.022 187.28 252.622 186.08C254.302 184.8 255.982 183.28 257.662 181.52C259.422 179.76 260.942 178.08 262.222 176.48C262.782 175.84 263.302 175.2 263.782 174.56C264.342 173.84 264.662 173.44 264.742 173.36C264.902 173.52 264.982 173.8 264.982 174.2C264.982 174.76 264.782 175.32 264.382 175.88C264.062 176.36 263.742 176.8 263.422 177.2C261.902 179.2 260.142 181.28 258.142 183.44C256.222 185.6 254.102 187.44 251.782 188.96C249.462 190.4 246.982 191.24 244.342 191.48C243.542 191.56 242.742 191.4 241.942 191C241.142 190.6 240.742 189.96 240.742 189.08C240.742 187.96 241.022 186.64 241.582 185.12C242.222 183.6 242.902 182.08 243.622 180.56C244.422 179.04 245.022 177.8 245.422 176.84C246.862 174.04 248.182 171.4 249.382 168.92C250.582 166.44 251.422 164.68 251.902 163.64C252.142 163.16 252.262 162.76 252.262 162.44C252.262 161.88 251.822 161.84 250.942 162.32C250.062 162.8 248.982 163.52 247.702 164.48C246.502 165.44 245.382 166.4 244.342 167.36C243.302 168.24 242.622 168.84 242.302 169.16C240.942 170.52 239.302 172.36 237.382 174.68C235.542 177 233.822 179.44 232.222 182C230.622 184.48 229.502 186.8 228.862 188.96C228.062 189.68 227.302 190.04 226.582 190.04C226.022 190.04 225.542 189.84 225.142 189.44C224.822 189.04 224.662 188.56 224.662 188C224.662 186.4 225.142 184.52 226.102 182.36C227.142 180.12 227.982 178.28 228.622 176.84C230.062 174.04 231.382 171.4 232.582 168.92C233.782 166.44 234.622 164.68 235.102 163.64C235.342 163.16 235.462 162.76 235.462 162.44C235.462 161.88 235.022 161.84 234.142 162.32C233.262 162.8 232.182 163.52 230.902 164.48C229.702 165.44 228.582 166.4 227.542 167.36C226.502 168.24 225.822 168.84 225.502 169.16C223.582 171.16 221.782 173.2 220.102 175.28C218.502 177.36 217.142 179.6 216.022 182C215.382 183.44 214.702 185.04 213.982 186.8C213.262 188.56 212.662 190.04 212.182 191.24C211.142 191.32 210.102 191.6 209.062 192.08C208.022 192.56 207.302 192.8 206.902 192.8Z" fill="black" fill-opacity="0.64"/>
<path d="M269.389 191.96C266.109 191.96 263.829 191.32 262.549 190.04C261.269 188.76 260.629 187.2 260.629 185.36C260.629 183.04 261.229 180.56 262.429 177.92C263.709 175.28 264.909 173.04 266.029 171.2C267.309 169.28 269.029 167.28 271.189 165.2C273.349 163.12 275.709 161.36 278.269 159.92C280.829 158.48 283.309 157.76 285.709 157.76C287.789 157.76 289.229 158.28 290.029 159.32C290.829 160.28 291.229 161.44 291.229 162.8C291.229 165.28 290.469 167.32 288.949 168.92C287.509 170.52 285.709 171.84 283.549 172.88C281.389 173.84 279.309 174.64 277.309 175.28C276.109 175.6 274.709 175.92 273.109 176.24C271.509 176.56 269.989 176.72 268.549 176.72C267.989 178.16 267.549 179.56 267.229 180.92C266.909 182.28 266.749 183.52 266.749 184.64C266.749 186 267.069 187.12 267.709 188C268.429 188.88 269.589 189.32 271.189 189.32C271.829 189.32 272.589 189.24 273.469 189.08C274.349 188.92 275.309 188.68 276.349 188.36C278.749 187.56 281.109 186.28 283.429 184.52C285.749 182.76 287.869 180.88 289.789 178.88C291.789 176.8 293.309 175.08 294.349 173.72C294.589 173.96 294.709 174.24 294.709 174.56C294.709 174.96 294.429 175.6 293.869 176.48C292.269 178.72 290.189 181.04 287.629 183.44C285.069 185.84 282.229 187.88 279.109 189.56C275.989 191.16 272.749 191.96 269.389 191.96ZM269.509 174.32C270.549 174.4 271.709 174.4 272.989 174.32C274.349 174.16 275.669 173.88 276.949 173.48C280.229 172.52 282.589 171 284.029 168.92C285.549 166.76 286.309 164.84 286.309 163.16C286.309 162.2 286.109 161.4 285.709 160.76C285.309 160.12 284.669 159.8 283.789 159.8C281.469 159.8 279.389 160.68 277.549 162.44C275.709 164.12 274.109 166.08 272.749 168.32C271.389 170.56 270.309 172.56 269.509 174.32Z" fill="black" fill-opacity="0.64"/>
</svg>
