<svg width="538" height="427" viewBox="0 0 538 427" fill="none" xmlns="http://www.w3.org/2000/svg">
<path d="M538 213.5C538 331.413 417.565 427 269 427C120.435 427 0 331.413 0 213.5C0 95.5872 120.435 0 269 0C417.565 0 538 95.5872 538 213.5Z" fill="white"/>
<path d="M466 213.5C466 305.455 377.8 380 269 380C160.2 380 72 305.455 72 213.5C72 121.545 160.2 47 269 47C377.8 47 466 121.545 466 213.5Z" fill="#43BEE5" fill-opacity="0.16"/>
<path d="M217.656 97.3383C217.656 96.5237 218.031 95.9892 218.78 95.7346C219.579 95.4292 220.404 95.2764 221.253 95.2764H227.099C227.599 95.2255 228.548 95.1746 229.948 95.1237C231.397 95.0728 232.896 95.0219 234.445 94.971C236.043 94.8692 237.542 94.7928 238.942 94.7419C240.391 94.691 241.415 94.6401 242.014 94.5891C242.114 94.691 242.464 94.8182 243.064 94.971C243.663 95.0728 244.088 95.1746 244.338 95.2764H244.713C245.362 95.2764 245.937 95.0982 246.437 94.7419C246.986 94.3855 247.536 94.2073 248.085 94.2073C248.185 94.1055 248.485 94.0546 248.985 94.0546C249.385 94.0546 249.809 94.08 250.259 94.131C250.709 94.1819 250.984 94.2073 251.083 94.2073C251.483 94.1055 252.108 94.0037 252.957 93.9019C253.857 93.7491 254.756 93.5964 255.655 93.4437C256.605 93.2909 257.454 93.1637 258.204 93.0618C259.003 92.96 259.528 92.8837 259.778 92.8328C259.828 92.8328 259.977 92.7818 260.227 92.68C260.527 92.5782 260.827 92.4764 261.127 92.3746C261.476 92.2218 261.776 92.0946 262.026 91.9927C262.326 91.84 262.526 91.7382 262.626 91.6873C262.826 91.5855 263.225 91.4582 263.825 91.3055C264.425 91.1018 264.749 91 264.799 91H272.369C273.019 91.2545 273.394 91.6618 273.493 92.2218C273.593 92.7818 273.643 93.3164 273.643 93.8255C273.643 94.0291 273.618 94.3091 273.568 94.6655C273.518 94.971 273.493 95.1746 273.493 95.2764C273.493 95.3782 273.394 95.5564 273.194 95.811C272.994 96.0146 272.769 96.2437 272.519 96.4983C272.269 96.7019 272.019 96.9055 271.77 97.1092C271.57 97.2619 271.42 97.3383 271.32 97.3383C270.92 97.491 270.271 97.6437 269.371 97.7965C268.472 97.9492 267.522 98.1019 266.523 98.2547C265.574 98.3565 264.649 98.4583 263.75 98.5601C262.901 98.6619 262.301 98.7128 261.951 98.7128C261.901 98.7128 261.776 98.7383 261.576 98.7892C261.377 98.7892 261.127 98.7892 260.827 98.7892C260.227 98.7892 259.553 98.7892 258.803 98.7892C258.104 98.7383 257.654 98.7128 257.454 98.7128C256.755 98.7638 255.98 98.891 255.131 99.0947C254.331 99.2474 253.707 99.6801 253.257 100.393C253.257 100.647 253.207 101.08 253.107 101.691C253.007 102.302 252.907 102.964 252.807 103.677C252.707 104.338 252.582 105 252.433 105.662C252.333 106.273 252.283 106.68 252.283 106.884C252.283 106.986 252.208 107.291 252.058 107.8C251.908 108.258 251.833 108.513 251.833 108.564C251.783 108.717 251.733 108.895 251.683 109.098C251.633 109.302 251.608 109.582 251.608 109.938C251.608 111.109 251.708 112.229 251.908 113.299C252.158 114.368 252.283 115.564 252.283 116.888C252.283 118.771 252.208 120.604 252.058 122.386C251.908 124.117 251.833 125.899 251.833 127.731C251.833 127.833 251.858 128.011 251.908 128.266C251.958 128.47 252.008 128.724 252.058 129.03C252.108 129.335 252.158 129.615 252.208 129.87C252.258 130.124 252.283 130.302 252.283 130.404C252.283 130.506 252.283 130.812 252.283 131.321C252.333 131.779 252.358 132.313 252.358 132.924C252.358 133.535 252.358 134.197 252.358 134.91C252.358 135.622 252.333 136.31 252.283 136.972C252.283 137.633 252.283 138.219 252.283 138.728C252.283 139.237 252.283 139.593 252.283 139.797C252.283 139.797 252.308 139.924 252.358 140.179C252.408 140.383 252.458 140.612 252.507 140.866C252.557 141.07 252.607 141.299 252.657 141.553C252.707 141.757 252.732 141.859 252.732 141.859C252.732 142.063 252.757 142.444 252.807 143.004C252.857 143.564 252.907 144.175 252.957 144.837C253.057 145.448 253.132 146.059 253.182 146.67C253.232 147.23 253.257 147.663 253.257 147.968L253.407 148.274C253.507 148.477 253.557 148.63 253.557 148.732C253.557 151.888 253.407 155.045 253.107 158.201C252.807 161.357 252.532 164.539 252.283 167.747C252.283 167.899 252.308 168.179 252.358 168.587C252.408 168.943 252.458 169.35 252.507 169.808C252.557 170.216 252.607 170.623 252.657 171.03C252.707 171.438 252.732 171.718 252.732 171.87C252.782 172.278 252.832 172.965 252.882 173.932C252.982 174.849 253.057 175.841 253.107 176.91C253.157 177.979 253.182 178.998 253.182 179.965C253.232 180.881 253.257 181.518 253.257 181.874C253.357 182.027 253.407 182.434 253.407 183.096C253.407 183.707 253.407 184.42 253.407 185.234C253.407 185.998 253.382 186.787 253.332 187.601C253.332 188.416 253.332 189.205 253.332 189.969C253.332 190.682 253.307 191.318 253.257 191.878C253.257 192.387 253.257 192.718 253.257 192.871C253.307 193.125 253.357 193.482 253.407 193.94C253.507 194.398 253.607 194.856 253.707 195.314C253.807 195.772 253.957 196.205 254.156 196.613C254.406 196.969 254.731 197.223 255.131 197.376C255.331 197.376 255.73 197.402 256.33 197.453C256.93 197.503 257.554 197.554 258.204 197.605C258.903 197.605 259.553 197.631 260.152 197.682C260.752 197.733 261.152 197.758 261.352 197.758C261.551 197.758 261.876 197.809 262.326 197.911C262.776 198.013 263.05 198.089 263.15 198.14C263.7 198.14 264.649 198.14 265.998 198.14C267.398 198.089 268.946 198.063 270.645 198.063C272.244 198.063 273.743 198.089 275.142 198.14C276.541 198.14 277.516 198.14 278.065 198.14C278.115 198.14 278.29 198.165 278.59 198.216C278.94 198.267 279.315 198.343 279.714 198.445C280.114 198.496 280.489 198.573 280.839 198.674C281.238 198.725 281.488 198.776 281.588 198.827C283.737 198.929 285.96 199.133 288.259 199.438C290.607 199.743 292.905 199.896 295.154 199.896C295.804 199.896 296.303 199.871 296.653 199.82C297.053 199.718 297.602 199.565 298.302 199.362C299.451 198.751 300.575 198.14 301.675 197.529C302.774 196.867 303.898 196.231 305.047 195.62C305.347 195.263 305.622 194.983 305.872 194.78C306.122 194.576 306.371 194.398 306.621 194.245C306.871 194.092 307.121 193.914 307.371 193.711C307.671 193.507 308.02 193.227 308.42 192.871C309.869 191.598 311.143 190.172 312.243 188.594C313.392 187.016 314.491 185.412 315.54 183.783C316.59 182.103 317.639 180.449 318.688 178.82C319.738 177.139 320.937 175.612 322.286 174.238C322.286 174.136 322.411 174.085 322.661 174.085H322.736C322.736 174.085 322.835 174.136 323.035 174.238L323.185 174.696C323.235 174.798 323.285 174.899 323.335 175.001C323.385 175.103 323.41 175.205 323.41 175.307C323.46 175.459 323.535 175.841 323.635 176.452C323.735 177.012 323.835 177.649 323.935 178.361C324.035 179.074 324.135 179.761 324.235 180.423C324.334 181.085 324.409 181.569 324.459 181.874V182.943C324.459 183.198 324.409 183.783 324.31 184.7C324.21 185.565 324.085 186.532 323.935 187.601C323.835 188.671 323.735 189.689 323.635 190.656C323.535 191.572 323.46 192.183 323.41 192.489C323.41 192.642 323.385 193.049 323.335 193.711C323.285 194.372 323.235 195.111 323.185 195.925C323.185 196.689 323.16 197.427 323.11 198.14C323.06 198.802 323.035 199.209 323.035 199.362C322.786 200.991 322.311 202.289 321.611 203.256C320.912 204.173 319.837 204.631 318.388 204.631C317.939 204.529 317.139 204.478 315.99 204.478C314.841 204.478 313.617 204.478 312.318 204.478C311.018 204.478 309.794 204.478 308.645 204.478C307.496 204.478 306.721 204.529 306.322 204.631C306.222 204.631 306.022 204.631 305.722 204.631C305.472 204.682 305.172 204.733 304.823 204.784C304.473 204.834 304.148 204.86 303.848 204.86C303.598 204.911 303.423 204.962 303.324 205.013H287.884C287.534 205.064 286.635 205.114 285.186 205.165C283.787 205.267 282.288 205.344 280.689 205.394C279.09 205.496 277.566 205.573 276.117 205.624C274.718 205.674 273.843 205.7 273.493 205.7H272.894C272.594 205.649 271.82 205.573 270.57 205.471C269.371 205.369 268.047 205.242 266.598 205.089C265.199 204.987 263.9 204.885 262.701 204.784C261.501 204.682 260.752 204.631 260.452 204.631H255.131C255.031 204.631 254.731 204.58 254.231 204.478C253.732 204.325 253.407 204.249 253.257 204.249C253.257 204.249 253.132 204.274 252.882 204.325C252.682 204.376 252.458 204.427 252.208 204.478C251.958 204.478 251.708 204.504 251.458 204.554C251.258 204.605 251.133 204.631 251.083 204.631H247.561C243.663 204.733 239.741 204.936 235.794 205.242C231.896 205.547 227.949 205.7 223.952 205.7H220.354C220.254 205.7 220.129 205.674 219.979 205.624C219.879 205.573 219.604 205.369 219.155 205.013C219.055 204.911 218.955 204.682 218.855 204.325C218.805 203.969 218.78 203.638 218.78 203.333C218.78 202.773 218.88 202.289 219.08 201.882C219.33 201.423 219.654 201.143 220.054 201.042C220.154 200.991 220.354 200.889 220.654 200.736C220.954 200.533 221.153 200.38 221.253 200.278C222.253 199.82 223.427 199.591 224.776 199.591C226.175 199.591 227.574 199.565 228.973 199.514C230.372 199.413 231.671 199.183 232.871 198.827C234.07 198.42 234.994 197.631 235.644 196.46C235.694 196.256 235.744 195.874 235.794 195.314C235.844 194.703 235.894 194.092 235.944 193.482C235.994 192.82 236.043 192.234 236.093 191.725C236.143 191.165 236.168 190.809 236.168 190.656C236.168 190.503 236.068 190.172 235.869 189.663C235.719 189.103 235.644 188.772 235.644 188.671V184.7L235.419 182.943C235.369 182.841 235.344 182.74 235.344 182.638C235.294 182.536 235.269 182.434 235.269 182.332C235.269 181.518 235.319 180.83 235.419 180.27C235.569 179.71 235.644 179.074 235.644 178.361V177.139C235.644 176.936 235.594 176.605 235.494 176.147C235.444 175.689 235.419 175.409 235.419 175.307C235.419 175.154 235.444 174.772 235.494 174.161C235.594 173.55 235.644 173.143 235.644 172.939V167.747C235.644 167.492 235.744 167.034 235.944 166.372C236.143 165.71 236.218 165.252 236.168 164.997C236.068 164.743 235.969 164.03 235.869 162.859C235.819 161.688 235.744 159.805 235.644 157.208V151.939C235.744 149.343 235.819 147.484 235.869 146.364C235.969 145.244 236.068 144.583 236.168 144.379V143.997C236.168 142.063 236.068 140.128 235.869 138.193C235.719 136.259 235.644 134.324 235.644 132.39C235.644 132.033 235.619 131.677 235.569 131.321C235.519 130.964 235.494 130.608 235.494 130.251C235.494 129.793 235.594 129.157 235.794 128.342C236.043 127.477 236.168 126.484 236.168 125.364C236.168 124.091 236.143 122.793 236.093 121.47C236.043 120.095 236.019 118.746 236.019 117.422C236.019 116.251 236.043 115.106 236.093 113.986C236.143 112.815 236.168 111.644 236.168 110.473C235.919 109.913 235.744 109.251 235.644 108.488C235.594 107.724 235.519 106.986 235.419 106.273C235.369 105.509 235.269 104.822 235.119 104.211C235.019 103.549 234.769 103.066 234.37 102.76C233.67 102.2 232.646 101.844 231.297 101.691C229.998 101.487 228.549 101.309 226.95 101.157C225.6 101.055 224.226 100.978 222.827 100.927C221.478 100.826 220.354 100.571 219.455 100.164C218.255 99.7056 217.656 98.7637 217.656 97.3383Z" fill="black" fill-opacity="0.58"/>
<path d="M280.166 356.96C268.295 356.96 252.741 339.026 233.503 303.16C214.674 266.876 192.775 221 167.806 165.532L150 126.746C150 122.576 152.456 118.614 157.368 114.86C162.28 110.689 169.648 108.813 179.471 109.23C181.927 113.817 189.705 130.708 202.803 159.902C218.358 194.1 231.456 222.251 242.098 244.355C253.15 266.042 266.453 289.397 282.008 314.42C288.966 288.563 296.744 264.374 305.339 241.853C314.345 218.915 327.648 186.593 345.249 144.888L354.459 122.993C356.914 117.988 361.622 115.486 368.58 115.486C373.492 115.486 377.79 116.737 381.474 119.239C385.158 121.741 387 125.286 387 129.874C387 134.044 384.953 138.424 380.86 143.011C377.995 145.931 373.902 154.48 368.58 168.66C363.259 182.423 357.733 197.854 352.003 214.953C336.448 259.995 322.94 295.236 311.479 320.676C300.018 345.699 289.58 357.794 280.166 356.96Z" fill="#00FFF0" fill-opacity="0.31"/>
<path d="M280.903 123.399C283.41 123.618 285.594 124.311 287.457 125.479C289.319 126.574 290.251 128.253 290.251 130.515C290.251 132.194 289.463 133.544 287.887 134.566C286.382 135.515 284.556 135.989 282.407 135.989C280.33 135.989 278.897 135.442 278.109 134.347C277.321 133.252 276.927 132.121 276.927 130.953C276.927 128.764 277.142 126.939 277.572 125.479C278.073 124.02 279.183 123.326 280.903 123.399ZM289.498 175.072C289.498 177.919 289.57 180.619 289.713 183.173C289.928 185.655 290.179 188.173 290.465 190.727C290.394 191.457 289.857 192.223 288.854 193.026C287.851 193.756 286.955 194.121 286.168 194.121C284.807 194.121 283.41 193.866 281.977 193.355C280.616 192.771 279.792 192.077 279.506 191.275C279.076 188.939 278.861 186.859 278.861 185.035C278.861 179.05 278.682 172.335 278.324 164.891C278.037 158.322 277.894 153.724 277.894 151.097C277.894 149.783 278.539 148.652 279.828 147.703C281.117 146.754 282.478 146.28 283.911 146.28C285.988 146.28 287.421 146.754 288.209 147.703C289.069 148.652 289.498 150.148 289.498 152.192V175.072Z" fill="black" fill-opacity="0.58"/>
</svg>
