<svg width="144" height="25" viewBox="0 0 144 25" fill="none" xmlns="http://www.w3.org/2000/svg">
<path d="M3.525 16.95C3.00833 16.95 2.51667 16.8 2.05 16.5C1.58333 16.2167 1.23333 15.775 1 15.175C0.916667 14.9583 0.858333 14.725 0.825 14.475C0.808333 14.225 0.8 13.9833 0.8 13.75V13.425C0.8 13.3083 0.808333 13.2 0.825 13.1C0.858333 13 0.925 12.95 1.025 12.95C1.05833 12.95 1.075 12.9667 1.075 13C1.075 13.1 1.06667 13.2 1.05 13.3C1.05 13.4 1.05 13.5 1.05 13.6C1.05 14.3833 1.24167 14.9833 1.625 15.4C2.025 15.8 2.51667 16 3.1 16C3.68333 16 4.25 15.8333 4.8 15.5C5.35 15.15 5.85833 14.7167 6.325 14.2C6.59167 13.9167 6.89167 13.4917 7.225 12.925C7.575 12.3417 7.93333 11.6917 8.3 10.975C8.68333 10.2417 9.06667 9.49167 9.45 8.725C9.83333 7.94167 10.2 7.19167 10.55 6.475C10.9 5.74167 11.2167 5.1 11.5 4.55C11.7667 4.03333 12.125 3.625 12.575 3.325C13.025 3.025 13.4083 2.81667 13.725 2.7C13.6083 2.7 13.3583 2.70833 12.975 2.725C12.6083 2.74167 12.2167 2.75833 11.8 2.775C11.3833 2.79167 11.05 2.80833 10.8 2.825C10.1667 2.85833 9.525 2.93333 8.875 3.05C8.225 3.16667 7.65 3.325 7.15 3.525C6.65 3.725 6.29167 3.98333 6.075 4.3C5.925 4.51667 5.85 4.76667 5.85 5.05C5.85 5.61667 6.1 6.025 6.6 6.275C6.63333 6.30833 6.65 6.325 6.65 6.325C6.65 6.375 6.60833 6.425 6.525 6.475C6.44167 6.50833 6.35833 6.51667 6.275 6.5C6.14167 6.41667 5.975 6.28333 5.775 6.1C5.59167 5.9 5.41667 5.69167 5.25 5.475C5.1 5.25833 5 5.075 4.95 4.925C4.86667 4.675 4.825 4.475 4.825 4.325C4.825 3.925 4.975 3.6 5.275 3.35C5.575 3.08333 5.96667 2.88333 6.45 2.75C6.93333 2.6 7.45 2.5 8 2.45C8.55 2.38333 9.08333 2.34167 9.6 2.325C10.1167 2.30833 10.5583 2.3 10.925 2.3C11.775 2.3 12.5333 2.3 13.2 2.3C13.8833 2.28333 14.5083 2.275 15.075 2.275C15.6583 2.275 16.2167 2.28333 16.75 2.3C17.3 2.31667 17.875 2.34167 18.475 2.375C18.9083 2.39167 19.2 2.475 19.35 2.625C19.5167 2.775 19.6 2.95833 19.6 3.175C19.6 3.45833 19.5083 3.76667 19.325 4.1C19.1417 4.43333 18.975 4.74167 18.825 5.025C18.7583 5.15833 18.65 5.25833 18.5 5.325C18.35 5.375 18.2917 5.325 18.325 5.175C18.3583 5.025 18.3917 4.86667 18.425 4.7C18.4583 4.51667 18.475 4.34167 18.475 4.175C18.475 3.875 18.4167 3.60833 18.3 3.375C18.1833 3.125 17.9833 2.95 17.7 2.85C17.5333 2.78333 17.3333 2.74167 17.1 2.725C16.8667 2.69167 16.6167 2.675 16.35 2.675C15.85 2.675 15.35 2.725 14.85 2.825C14.35 2.925 13.9583 3.08333 13.675 3.3C13.325 3.56667 12.9667 4 12.6 4.6C12.25 5.2 11.9167 5.84167 11.6 6.525C11.2833 7.20833 11 7.80833 10.75 8.325C10.7333 8.35833 10.725 8.40833 10.725 8.475C10.725 8.55833 10.8 8.6 10.95 8.6C11.1833 8.6 11.5083 8.6 11.925 8.6C12.3583 8.6 12.8083 8.60833 13.275 8.625C13.7417 8.625 14.1417 8.625 14.475 8.625C14.8417 8.625 15.1333 8.65 15.35 8.7C15.5667 8.73333 15.675 8.84167 15.675 9.025C15.675 9.09167 15.6333 9.225 15.55 9.425C15.4333 9.69167 15.3 9.925 15.15 10.125C15.0167 10.3083 14.9083 10.5 14.825 10.7C14.8083 10.7667 14.7333 10.825 14.6 10.875C14.4667 10.925 14.4167 10.9167 14.45 10.85C14.5167 10.7 14.5833 10.5167 14.65 10.3C14.7333 10.0667 14.775 9.86667 14.775 9.7C14.775 9.43333 14.6583 9.3 14.425 9.3H10.525C10.375 9.3 10.2583 9.36667 10.175 9.5C9.69167 10.4667 9.16667 11.5 8.6 12.6C8.05 13.7 7.40833 14.6417 6.675 15.425C6.25833 15.875 5.775 16.2417 5.225 16.525C4.675 16.8083 4.10833 16.95 3.525 16.95ZM15.8008 16.05C15.5341 16.05 15.2924 16 15.0758 15.9C14.8758 15.7833 14.7758 15.5417 14.7758 15.175C14.7758 14.5917 14.9258 14.0083 15.2258 13.425C15.5258 12.825 15.8341 12.3 16.1508 11.85C16.4341 11.4667 16.7508 11.1083 17.1008 10.775C17.4674 10.425 17.8591 10.125 18.2758 9.875C18.5424 9.70833 18.9008 9.53333 19.3508 9.35C19.8174 9.15 20.2091 9.05 20.5258 9.05C20.7924 9.05 21.0258 9.125 21.2258 9.275C21.4258 9.40833 21.5258 9.65833 21.5258 10.025C21.5258 10.5917 21.3758 11.175 21.0758 11.775C20.7924 12.3583 20.4924 12.875 20.1758 13.325C20.0258 13.525 19.8758 13.7167 19.7258 13.9C19.5758 14.0667 19.4091 14.2417 19.2258 14.425C19.8424 14.425 20.4091 14.25 20.9258 13.9C21.4424 13.5333 21.8924 13.0917 22.2758 12.575L22.3258 12.525C22.3758 12.525 22.4008 12.575 22.4008 12.675C22.4008 12.7917 22.3674 12.9 22.3008 13C21.9674 13.4667 21.5508 13.8833 21.0508 14.25C20.5508 14.6 19.9841 14.775 19.3508 14.775C19.2841 14.775 19.2174 14.775 19.1508 14.775C19.0841 14.775 19.0174 14.7667 18.9508 14.75C18.0174 15.6167 16.9674 16.05 15.8008 16.05ZM16.4508 15.625C16.6841 15.625 16.9341 15.5417 17.2008 15.375C17.4841 15.2083 17.7008 15.05 17.8508 14.9C18.1341 14.6167 18.3924 14.3167 18.6258 14C18.8591 13.6667 19.0758 13.3333 19.2758 13C19.5091 12.6 19.7424 12.125 19.9758 11.575C20.2091 11.025 20.3258 10.5083 20.3258 10.025C20.3258 9.64167 20.1924 9.45 19.9258 9.45C19.7091 9.45 19.4424 9.54167 19.1258 9.725C18.8258 9.90833 18.6008 10.075 18.4508 10.225C17.8841 10.8083 17.4091 11.4417 17.0258 12.125C16.8091 12.5083 16.5758 12.9583 16.3258 13.475C16.0758 13.9917 15.9508 14.4667 15.9508 14.9C15.9508 14.9667 15.9508 15.0333 15.9508 15.1C15.9674 15.15 15.9841 15.2083 16.0008 15.275C16.0674 15.5083 16.2174 15.625 16.4508 15.625ZM22.167 16.35C22.1003 16.35 22.1003 16.2833 22.167 16.15C22.2503 16 22.3253 15.8333 22.392 15.65C22.4753 15.4667 22.5587 15.2667 22.642 15.05C22.8087 14.65 22.992 14.2 23.192 13.7C23.392 13.2 23.5837 12.7167 23.767 12.25C23.9503 11.7667 24.1087 11.3583 24.242 11.025C24.392 10.675 24.492 10.45 24.542 10.35C24.3087 10.6 24.0253 10.9167 23.692 11.3C23.3753 11.6667 23.0753 12.025 22.792 12.375C22.5087 12.725 22.292 13 22.142 13.2C22.092 13.2667 22.0503 13.3 22.017 13.3C21.9837 13.3 21.967 13.2583 21.967 13.175C21.967 13.0417 22.0087 12.9167 22.092 12.8C22.4087 12.4 22.7587 11.95 23.142 11.45C23.542 10.95 23.9003 10.4917 24.217 10.075C24.5337 9.64167 24.7337 9.35833 24.817 9.225C25.0003 9.19167 25.267 9.14167 25.617 9.075C25.9837 9.00833 26.2337 8.91667 26.367 8.8C26.417 8.75 26.467 8.725 26.517 8.725C26.5503 8.725 26.567 8.75833 26.567 8.825C26.5837 8.875 26.567 8.93333 26.517 9C26.417 9.1 26.267 9.31667 26.067 9.65C25.8837 9.98333 25.6753 10.3667 25.442 10.8C25.2087 11.2333 24.9837 11.65 24.767 12.05C24.9337 11.8 25.1503 11.5083 25.417 11.175C25.7003 10.825 26.0087 10.4917 26.342 10.175C26.6753 9.84167 27.0087 9.56667 27.342 9.35C27.692 9.13333 28.017 9.025 28.317 9.025C28.5337 9.025 28.717 9.075 28.867 9.175C29.017 9.25833 29.1337 9.41667 29.217 9.65C29.267 9.76667 29.292 9.9 29.292 10.05C29.292 10.3333 29.217 10.6083 29.067 10.875C28.9337 11.125 28.8337 11.3167 28.767 11.45C28.7503 11.5 28.692 11.55 28.592 11.6C28.492 11.6333 28.4503 11.6167 28.467 11.55C28.4837 11.4667 28.492 11.3833 28.492 11.3C28.5087 11.2167 28.517 11.125 28.517 11.025C28.517 10.7417 28.4587 10.4833 28.342 10.25C28.242 10.0167 28.0503 9.9 27.767 9.9C27.5003 9.9 27.1753 10.0667 26.792 10.4C26.4087 10.7333 26.0253 11.1167 25.642 11.55C25.1587 12.1167 24.7753 12.6583 24.492 13.175C24.2087 13.675 23.9753 14.1667 23.792 14.65C23.692 14.9167 23.592 15.1833 23.492 15.45C23.392 15.7 23.317 15.9 23.267 16.05C23.0503 16.0667 22.8337 16.1167 22.617 16.2C22.4003 16.3 22.2503 16.35 22.167 16.35ZM34.0521 16.075C33.8855 16.075 33.7438 16.0417 33.6271 15.975C33.5105 15.9083 33.4521 15.7833 33.4521 15.6C33.4521 15.3667 33.5105 15.0917 33.6271 14.775C33.7605 14.4583 33.9021 14.1417 34.0521 13.825C34.2021 13.5083 34.3271 13.25 34.4271 13.05C34.5105 12.9 34.6188 12.6667 34.7521 12.35C34.9021 12.0167 35.0521 11.675 35.2021 11.325C35.3688 10.9583 35.5021 10.65 35.6021 10.4C35.7188 10.15 35.7771 10.025 35.7771 10.025C35.6271 10.1917 35.4271 10.425 35.1771 10.725C34.9438 11.025 34.6855 11.3417 34.4021 11.675C34.1355 11.9917 33.8855 12.2917 33.6521 12.575C33.4355 12.8583 33.2771 13.0667 33.1771 13.2C33.1271 13.2667 33.0855 13.3 33.0521 13.3C33.0188 13.3 33.0021 13.2583 33.0021 13.175C33.0021 13.0417 33.0438 12.9167 33.1271 12.8C33.3271 12.55 33.5688 12.25 33.8521 11.9C34.1355 11.5333 34.4188 11.1667 34.7021 10.8C35.0021 10.4333 35.2605 10.1083 35.4771 9.825C35.3438 9.825 35.1688 9.83333 34.9521 9.85C34.7521 9.86667 34.5688 9.89167 34.4021 9.925C34.2355 9.94167 34.1438 9.95 34.1271 9.95C34.0438 9.95 34.0521 9.88333 34.1521 9.75C34.2521 9.61667 34.3855 9.48333 34.5521 9.35C34.7188 9.21667 34.8438 9.15 34.9271 9.15C34.9438 9.15 35.0771 9.15833 35.3271 9.175C35.5771 9.175 35.7605 9.175 35.8771 9.175C36.2105 8.725 36.5355 8.20833 36.8521 7.625C37.1855 7.04167 37.5105 6.4 37.8271 5.7C37.9605 5.68333 38.1855 5.59167 38.5021 5.425C38.8355 5.24167 39.0938 5.05833 39.2771 4.875C39.3605 4.79167 39.4271 4.75 39.4771 4.75C39.5771 4.75 39.5771 4.81667 39.4771 4.95C39.3605 5.08333 39.1605 5.36667 38.8771 5.8C38.5938 6.21667 38.2771 6.725 37.9271 7.325C37.5771 7.90833 37.2438 8.525 36.9271 9.175H38.9521C39.1355 9.175 39.2271 9.2 39.2271 9.25C39.2271 9.31667 39.1021 9.38333 38.8521 9.45C38.5688 9.53333 38.2688 9.58333 37.9521 9.6C37.6521 9.61667 37.3688 9.65 37.1021 9.7C36.8521 9.75 36.6688 9.85833 36.5521 10.025C36.4521 10.1417 36.3105 10.3917 36.1271 10.775C35.9438 11.1583 35.7438 11.6 35.5271 12.1C35.3271 12.5833 35.1521 13.075 35.0021 13.575C34.8521 14.0583 34.7605 14.4667 34.7271 14.8V14.9C34.7271 15.0333 34.7688 15.1417 34.8521 15.225C34.9355 15.3083 35.0188 15.35 35.1021 15.35C35.3188 15.35 35.5938 15.2167 35.9271 14.95C36.2771 14.6833 36.6355 14.3667 37.0021 14C37.3688 13.6167 37.6855 13.2667 37.9521 12.95C38.0688 12.8167 38.1688 12.6917 38.2521 12.575C38.3521 12.4583 38.4105 12.3833 38.4271 12.35C38.4605 12.4167 38.4771 12.4667 38.4771 12.5C38.4771 12.6 38.4438 12.7083 38.3771 12.825C38.3271 12.9417 38.2688 13.0417 38.2021 13.125C37.8855 13.5417 37.5021 13.9833 37.0521 14.45C36.6021 14.9 36.1188 15.2833 35.6021 15.6C35.1021 15.9167 34.5855 16.075 34.0521 16.075ZM41.7082 16.15C41.4582 16.15 41.2332 16.1 41.0332 16C40.8499 15.9 40.7582 15.7167 40.7582 15.45C40.7582 15.3 40.7915 15.1333 40.8582 14.95C41.0082 14.5667 41.2082 14.1 41.4582 13.55C41.7249 13 41.9915 12.4667 42.2582 11.95C42.5249 11.4167 42.7332 10.9833 42.8832 10.65C42.9832 10.45 43.0332 10.3083 43.0332 10.225C43.0332 10.075 42.9499 10.0417 42.7832 10.125C42.6165 10.2083 42.4332 10.325 42.2332 10.475C42.0332 10.625 41.8832 10.7417 41.7832 10.825C41.3499 11.225 40.8915 11.7 40.4082 12.25C39.9415 12.7833 39.5082 13.35 39.1082 13.95C38.7249 14.5333 38.4249 15.1167 38.2082 15.7C38.1915 15.8 38.0832 15.8833 37.8832 15.95C37.6832 16.0167 37.4999 16.05 37.3332 16.05C37.0665 16.05 36.9665 15.9667 37.0332 15.8C37.4165 14.9333 37.8082 13.975 38.2082 12.925C38.6249 11.875 39.0915 10.8 39.6082 9.7C39.9915 8.86667 40.4165 8.00833 40.8832 7.125C41.3665 6.24167 41.8999 5.4 42.4832 4.6C43.0665 3.78333 43.7082 3.06667 44.4082 2.45C45.0249 1.91667 45.6999 1.48333 46.4332 1.15C47.1832 0.799999 47.9915 0.625 48.8582 0.625C49.2415 0.625 49.5749 0.708333 49.8582 0.875C50.1415 1.025 50.2999 1.3 50.3332 1.7V1.925C50.3332 2.15833 50.3082 2.39167 50.2582 2.625C50.2415 2.69167 50.1749 2.725 50.0582 2.725C50.0082 2.725 49.9915 2.71667 50.0082 2.7C50.0749 2.26667 49.9582 1.95833 49.6582 1.775C49.3749 1.59167 49.0082 1.5 48.5582 1.5C47.7415 1.5 46.9915 1.65 46.3082 1.95C45.6249 2.25 44.9915 2.65 44.4082 3.15C43.5082 3.93333 42.7249 4.93333 42.0582 6.15C41.3915 7.36667 40.8165 8.60833 40.3332 9.875C40.0999 10.4917 39.8665 11.1083 39.6332 11.725C39.4165 12.3417 39.2082 12.9167 39.0082 13.45C39.7582 12.45 40.4749 11.5917 41.1582 10.875C41.8582 10.1583 42.4665 9.65 42.9832 9.35C43.3999 9.11667 43.7749 9 44.1082 9C44.4249 9 44.5832 9.13333 44.5832 9.4C44.5832 9.63333 44.4665 9.93333 44.2332 10.3C44.1165 10.4833 43.9332 10.7917 43.6832 11.225C43.4499 11.6583 43.1999 12.1333 42.9332 12.65C42.6832 13.15 42.4665 13.6167 42.2832 14.05C42.0999 14.4833 42.0082 14.8 42.0082 15C42.0082 15.2667 42.1249 15.4 42.3582 15.4C42.4915 15.4 42.6415 15.3583 42.8082 15.275C42.9915 15.1917 43.1249 15.1167 43.2082 15.05C43.6582 14.7167 44.0999 14.3083 44.5332 13.825C44.9665 13.3417 45.3332 12.9167 45.6332 12.55C45.6499 12.5333 45.6582 12.5583 45.6582 12.625C45.6582 12.6917 45.6415 12.7917 45.6082 12.925C45.5915 13.0417 45.5415 13.1417 45.4582 13.225C45.2749 13.475 45.0832 13.7167 44.8832 13.95C44.6999 14.1667 44.5165 14.3833 44.3332 14.6C44.0165 14.9667 43.6332 15.3167 43.1832 15.65C42.7499 15.9833 42.2582 16.15 41.7082 16.15ZM46.7818 16.2C46.0985 16.2 45.6235 16.0667 45.3568 15.8C45.0902 15.5333 44.9568 15.2083 44.9568 14.825C44.9568 14.3417 45.0818 13.825 45.3318 13.275C45.5985 12.725 45.8485 12.2583 46.0818 11.875C46.3485 11.475 46.7068 11.0583 47.1568 10.625C47.6068 10.1917 48.0985 9.825 48.6318 9.525C49.1652 9.225 49.6818 9.075 50.1818 9.075C50.6152 9.075 50.9152 9.18333 51.0818 9.4C51.2485 9.6 51.3318 9.84167 51.3318 10.125C51.3318 10.6417 51.1735 11.0667 50.8568 11.4C50.5568 11.7333 50.1818 12.0083 49.7318 12.225C49.2818 12.425 48.8485 12.5917 48.4318 12.725C48.1818 12.7917 47.8902 12.8583 47.5568 12.925C47.2235 12.9917 46.9068 13.025 46.6068 13.025C46.4902 13.325 46.3985 13.6167 46.3318 13.9C46.2652 14.1833 46.2318 14.4417 46.2318 14.675C46.2318 14.9583 46.2985 15.1917 46.4318 15.375C46.5818 15.5583 46.8235 15.65 47.1568 15.65C47.2902 15.65 47.4485 15.6333 47.6318 15.6C47.8152 15.5667 48.0152 15.5167 48.2318 15.45C48.7318 15.2833 49.2235 15.0167 49.7068 14.65C50.1902 14.2833 50.6318 13.8917 51.0318 13.475C51.4485 13.0417 51.7652 12.6833 51.9818 12.4C52.0318 12.45 52.0568 12.5083 52.0568 12.575C52.0568 12.6583 51.9985 12.7917 51.8818 12.975C51.5485 13.4417 51.1152 13.925 50.5818 14.425C50.0485 14.925 49.4568 15.35 48.8068 15.7C48.1568 16.0333 47.4818 16.2 46.7818 16.2ZM46.8068 12.525C47.0235 12.5417 47.2652 12.5417 47.5318 12.525C47.8152 12.4917 48.0902 12.4333 48.3568 12.35C49.0402 12.15 49.5318 11.8333 49.8318 11.4C50.1485 10.95 50.3068 10.55 50.3068 10.2C50.3068 10 50.2652 9.83333 50.1818 9.7C50.0985 9.56667 49.9652 9.5 49.7818 9.5C49.2985 9.5 48.8652 9.68333 48.4818 10.05C48.0985 10.4 47.7652 10.8083 47.4818 11.275C47.1985 11.7417 46.9735 12.1583 46.8068 12.525ZM57.4561 16.05C56.9561 16.05 56.6144 15.9333 56.4311 15.7C56.2477 15.45 56.1561 15.15 56.1561 14.8C56.1561 14.3333 56.2561 13.8333 56.4561 13.3C56.6727 12.7667 56.8477 12.35 56.9811 12.05C56.7644 12.2833 56.5561 12.5083 56.3561 12.725C56.1561 12.9417 56.0144 13.1 55.9311 13.2C55.8811 13.2667 55.8394 13.3 55.8061 13.3C55.7727 13.3 55.7561 13.2583 55.7561 13.175C55.7561 13.0417 55.7977 12.9167 55.8811 12.8C56.1144 12.5 56.3811 12.1833 56.6811 11.85C56.9811 11.5167 57.2727 11.1667 57.5561 10.8C57.8894 10.1833 58.2561 9.46667 58.6561 8.65C59.0727 7.81667 59.4977 6.96667 59.9311 6.1C60.3811 5.21667 60.8144 4.40833 61.2311 3.675C61.6644 2.925 62.0477 2.325 62.3811 1.875C62.6644 1.75833 62.9311 1.60833 63.1811 1.425C63.4477 1.24167 63.7061 1.075 63.9561 0.924999C64.2227 0.758332 64.4977 0.674999 64.7811 0.674999C64.9644 0.674999 65.0977 0.724999 65.1811 0.824999C65.2811 0.924999 65.3477 1.04167 65.3811 1.175C65.3977 1.225 65.4061 1.31667 65.4061 1.45C65.4061 1.83333 65.2727 2.3 65.0061 2.85C64.7561 3.4 64.4561 3.94167 64.1061 4.475C63.7727 4.99167 63.4811 5.41667 63.2311 5.75C62.5644 6.68333 61.8811 7.53333 61.1811 8.3C60.4811 9.05 59.8477 9.68333 59.2811 10.2C58.7311 10.7 58.3311 11.0667 58.0811 11.3C57.9644 11.5167 57.8227 11.8083 57.6561 12.175C57.5061 12.525 57.3727 12.9 57.2561 13.3C57.1394 13.6833 57.0811 14.0417 57.0811 14.375C57.0811 14.6583 57.1477 14.9 57.2811 15.1C57.4144 15.2833 57.6394 15.375 57.9561 15.375C58.0061 15.375 58.0561 15.375 58.1061 15.375C58.1561 15.375 58.2144 15.3667 58.2811 15.35C58.5644 15.3 58.8727 15.1417 59.2061 14.875C59.5394 14.6083 59.8727 14.3 60.2061 13.95C60.5394 13.6 60.8394 13.2667 61.1061 12.95C61.2227 12.8167 61.3311 12.6917 61.4311 12.575C61.5311 12.4417 61.5977 12.35 61.6311 12.3C61.7477 12.4167 61.7394 12.5667 61.6061 12.75C61.4894 12.9167 61.3894 13.0583 61.3061 13.175C61.1894 13.325 61.0227 13.5333 60.8061 13.8C60.5894 14.05 60.3394 14.325 60.0561 14.625C59.7394 14.9417 59.3477 15.2583 58.8811 15.575C58.4144 15.8917 57.9394 16.05 57.4561 16.05ZM58.5061 10.3C59.0227 9.86667 59.6727 9.25 60.4561 8.45C61.2561 7.63333 62.0394 6.65 62.8061 5.5C62.8894 5.36667 63.0227 5.14167 63.2061 4.825C63.4061 4.50833 63.6061 4.15 63.8061 3.75C64.0227 3.33333 64.2061 2.93333 64.3561 2.55C64.5061 2.15 64.5811 1.80833 64.5811 1.525C64.5811 1.25833 64.5061 1.125 64.3561 1.125C64.1727 1.125 63.9311 1.28333 63.6311 1.6C63.2811 1.96667 62.8811 2.50833 62.4311 3.225C61.9977 3.925 61.5394 4.70833 61.0561 5.575C60.5727 6.44167 60.1061 7.29167 59.6561 8.125C59.2227 8.95833 58.8394 9.68333 58.5061 10.3ZM66.3527 6.45C66.1194 6.45 65.9527 6.375 65.8527 6.225C65.7861 6.14167 65.7527 6.03333 65.7527 5.9C65.7527 5.63333 65.8777 5.41667 66.1277 5.25C66.3111 5.15 66.4777 5.1 66.6277 5.1C66.8777 5.1 67.0527 5.175 67.1527 5.325C67.2194 5.40833 67.2527 5.51667 67.2527 5.65C67.2527 5.91667 67.1194 6.13333 66.8527 6.3C66.7027 6.4 66.5361 6.45 66.3527 6.45ZM62.0027 16.075C61.8361 16.075 61.6944 16.0417 61.5777 15.975C61.4777 15.9083 61.4277 15.7833 61.4277 15.6C61.4277 15.3667 61.4861 15.0917 61.6027 14.775C61.7361 14.4583 61.8777 14.1417 62.0277 13.825C62.1944 13.5083 62.3194 13.25 62.4027 13.05C62.5194 12.8167 62.6611 12.5167 62.8277 12.15C63.0111 11.7667 63.1777 11.4083 63.3277 11.075C63.4944 10.725 63.6111 10.4833 63.6777 10.35C63.4444 10.6 63.1611 10.9167 62.8277 11.3C62.5111 11.6667 62.2111 12.025 61.9277 12.375C61.6444 12.725 61.4277 13 61.2777 13.2C61.2277 13.2667 61.1861 13.3 61.1527 13.3C61.1194 13.3 61.1027 13.2583 61.1027 13.175C61.1027 13.0417 61.1444 12.9167 61.2277 12.8C61.5444 12.4 61.8944 11.95 62.2777 11.45C62.6777 10.95 63.0361 10.4917 63.3527 10.075C63.6694 9.64167 63.8694 9.35833 63.9527 9.225C64.1361 9.19167 64.4027 9.14167 64.7527 9.075C65.1194 9.00833 65.3694 8.91667 65.5027 8.8C65.5527 8.75 65.6027 8.725 65.6527 8.725C65.6861 8.725 65.7027 8.75833 65.7027 8.825C65.7194 8.875 65.7027 8.93333 65.6527 9C65.5527 9.11667 65.3777 9.4 65.1277 9.85C64.8777 10.3 64.6111 10.8 64.3277 11.35C64.0611 11.8833 63.8111 12.3667 63.5777 12.8C63.3444 13.25 63.1444 13.6833 62.9777 14.1C62.8111 14.5167 62.7277 14.8167 62.7277 15C62.7277 15.2333 62.8444 15.35 63.0777 15.35C63.2944 15.35 63.5694 15.2167 63.9027 14.95C64.2527 14.6833 64.6027 14.3667 64.9527 14C65.3027 13.6167 65.6111 13.2667 65.8777 12.95C65.9611 12.85 66.0611 12.7333 66.1777 12.6C66.3111 12.45 66.3944 12.3583 66.4277 12.325C66.4611 12.3583 66.4777 12.4167 66.4777 12.5C66.4611 12.6167 66.4194 12.7333 66.3527 12.85C66.2861 12.95 66.2194 13.0417 66.1527 13.125C65.8027 13.5583 65.4194 14.0083 65.0027 14.475C64.5861 14.925 64.1277 15.3083 63.6277 15.625C63.1277 15.925 62.5861 16.075 62.0027 16.075ZM68.0123 16.15C67.779 16.15 67.579 16.0667 67.4123 15.9C67.2456 15.7333 67.1623 15.4417 67.1623 15.025C67.1623 14.6583 67.1873 14.225 67.2373 13.725C67.304 13.225 67.3956 12.7167 67.5123 12.2C67.629 11.6667 67.7623 11.2 67.9123 10.8C67.629 11.2167 67.3123 11.65 66.9623 12.1C66.6123 12.5333 66.3206 12.9 66.0873 13.2C66.0373 13.2667 65.9956 13.3 65.9623 13.3C65.929 13.3 65.9123 13.2583 65.9123 13.175C65.9123 13.0417 65.954 12.9167 66.0373 12.8C66.3873 12.3167 66.779 11.7667 67.2123 11.15C67.6623 10.5333 68.0456 9.975 68.3623 9.475C68.5456 9.44167 68.7623 9.39167 69.0123 9.325C69.279 9.25833 69.4706 9.16667 69.5873 9.05C69.6706 9 69.7206 8.975 69.7373 8.975C69.7873 8.975 69.8123 9.00833 69.8123 9.075C69.8123 9.125 69.7873 9.18333 69.7373 9.25C69.5873 9.46667 69.4206 9.8 69.2373 10.25C69.0706 10.7 68.8956 11.2 68.7123 11.75C68.5456 12.3 68.404 12.8417 68.2873 13.375C68.1873 13.8917 68.1373 14.3333 68.1373 14.7C68.1373 14.9667 68.179 15.1583 68.2623 15.275C68.3456 15.375 68.454 15.425 68.5873 15.425C68.7706 15.425 68.9873 15.3333 69.2373 15.15C69.504 14.9667 69.729 14.775 69.9123 14.575C70.1456 14.325 70.404 13.9917 70.6873 13.575C70.9873 13.1583 71.2623 12.7167 71.5123 12.25C71.779 11.7833 71.979 11.3583 72.1123 10.975C72.2123 10.7083 72.279 10.4833 72.3123 10.3C72.3456 10.1 72.3623 9.94167 72.3623 9.825C72.3623 9.625 72.3373 9.48333 72.2873 9.4C72.2373 9.31667 72.1956 9.26667 72.1623 9.25C72.0623 9.21667 72.0123 9.175 72.0123 9.125C72.0123 9.09167 72.0456 9.06667 72.1123 9.05C72.179 9.01667 72.2456 9.01667 72.3123 9.05C72.529 9.11667 72.7456 9.21667 72.9623 9.35C73.179 9.46667 73.2873 9.7 73.2873 10.05C73.2873 10.1333 73.279 10.2333 73.2623 10.35C73.2456 10.45 73.2123 10.5667 73.1623 10.7C73.0623 10.9667 72.854 11.3417 72.5373 11.825C72.2373 12.3083 71.8873 12.8167 71.4873 13.35C71.0873 13.8833 70.6873 14.3667 70.2873 14.8C69.8873 15.2333 69.5373 15.5417 69.2373 15.725C69.0373 15.8417 68.829 15.9417 68.6123 16.025C68.3956 16.1083 68.1956 16.15 68.0123 16.15ZM78.5109 6.45C78.2776 6.45 78.1109 6.375 78.0109 6.225C77.9443 6.14167 77.9109 6.03333 77.9109 5.9C77.9109 5.63333 78.0359 5.41667 78.2859 5.25C78.4693 5.15 78.6359 5.1 78.7859 5.1C79.0359 5.1 79.2109 5.175 79.3109 5.325C79.3776 5.40833 79.4109 5.51667 79.4109 5.65C79.4109 5.91667 79.2776 6.13333 79.0109 6.3C78.8609 6.4 78.6943 6.45 78.5109 6.45ZM74.1609 16.075C73.9943 16.075 73.8526 16.0417 73.7359 15.975C73.6359 15.9083 73.5859 15.7833 73.5859 15.6C73.5859 15.3667 73.6443 15.0917 73.7609 14.775C73.8943 14.4583 74.0359 14.1417 74.1859 13.825C74.3526 13.5083 74.4776 13.25 74.5609 13.05C74.6776 12.8167 74.8193 12.5167 74.9859 12.15C75.1693 11.7667 75.3359 11.4083 75.4859 11.075C75.6526 10.725 75.7693 10.4833 75.8359 10.35C75.6026 10.6 75.3193 10.9167 74.9859 11.3C74.6693 11.6667 74.3693 12.025 74.0859 12.375C73.8026 12.725 73.5859 13 73.4359 13.2C73.3859 13.2667 73.3443 13.3 73.3109 13.3C73.2776 13.3 73.2609 13.2583 73.2609 13.175C73.2609 13.0417 73.3026 12.9167 73.3859 12.8C73.7026 12.4 74.0526 11.95 74.4359 11.45C74.8359 10.95 75.1943 10.4917 75.5109 10.075C75.8276 9.64167 76.0276 9.35833 76.1109 9.225C76.2943 9.19167 76.5609 9.14167 76.9109 9.075C77.2776 9.00833 77.5276 8.91667 77.6609 8.8C77.7109 8.75 77.7609 8.725 77.8109 8.725C77.8443 8.725 77.8609 8.75833 77.8609 8.825C77.8776 8.875 77.8609 8.93333 77.8109 9C77.7109 9.11667 77.5359 9.4 77.2859 9.85C77.0359 10.3 76.7693 10.8 76.4859 11.35C76.2193 11.8833 75.9693 12.3667 75.7359 12.8C75.5026 13.25 75.3026 13.6833 75.1359 14.1C74.9693 14.5167 74.8859 14.8167 74.8859 15C74.8859 15.2333 75.0026 15.35 75.2359 15.35C75.4526 15.35 75.7276 15.2167 76.0609 14.95C76.4109 14.6833 76.7609 14.3667 77.1109 14C77.4609 13.6167 77.7693 13.2667 78.0359 12.95C78.1193 12.85 78.2193 12.7333 78.3359 12.6C78.4693 12.45 78.5526 12.3583 78.5859 12.325C78.6193 12.3583 78.6359 12.4167 78.6359 12.5C78.6193 12.6167 78.5776 12.7333 78.5109 12.85C78.4443 12.95 78.3776 13.0417 78.3109 13.125C77.9609 13.5583 77.5776 14.0083 77.1609 14.475C76.7443 14.925 76.2859 15.3083 75.7859 15.625C75.2859 15.925 74.7443 16.075 74.1609 16.075ZM78.2705 16.375C78.2038 16.375 78.2038 16.3 78.2705 16.15C78.3538 16 78.4288 15.8333 78.4955 15.65C78.5788 15.4667 78.6622 15.2667 78.7455 15.05C78.9122 14.65 79.0955 14.2 79.2955 13.7C79.4955 13.2 79.6872 12.7167 79.8705 12.25C80.0538 11.7667 80.2122 11.3583 80.3455 11.025C80.4955 10.675 80.5955 10.45 80.6455 10.35C80.4122 10.6 80.1288 10.9167 79.7955 11.3C79.4788 11.6667 79.1788 12.025 78.8955 12.375C78.6122 12.725 78.3955 13 78.2455 13.2C78.1955 13.2667 78.1538 13.3 78.1205 13.3C78.0872 13.3 78.0705 13.2583 78.0705 13.175C78.0705 13.0417 78.1122 12.9167 78.1955 12.8C78.5122 12.4 78.8622 11.95 79.2455 11.45C79.6455 10.95 80.0038 10.4917 80.3205 10.075C80.6372 9.64167 80.8372 9.35833 80.9205 9.225C81.1038 9.19167 81.3705 9.14167 81.7205 9.075C82.0872 9.00833 82.3372 8.91667 82.4705 8.8C82.5205 8.75 82.5705 8.725 82.6205 8.725C82.6538 8.725 82.6705 8.75833 82.6705 8.825C82.6872 8.875 82.6705 8.93333 82.6205 9C82.5205 9.11667 82.3455 9.39167 82.0955 9.825C81.8622 10.2417 81.6038 10.7083 81.3205 11.225C81.0538 11.7417 80.8038 12.2083 80.5705 12.625C80.7705 12.3583 80.9872 12.1 81.2205 11.85C81.4538 11.6 81.6788 11.3583 81.8955 11.125C82.0955 10.925 82.3705 10.675 82.7205 10.375C83.0705 10.075 83.4372 9.8 83.8205 9.55C84.2038 9.3 84.5372 9.15833 84.8205 9.125C84.8872 9.10833 84.9455 9.1 84.9955 9.1C85.0622 9.1 85.1122 9.1 85.1455 9.1C85.5122 9.1 85.6955 9.23333 85.6955 9.5C85.6955 9.7 85.5872 9.96667 85.3705 10.3C85.2538 10.4833 85.0705 10.7917 84.8205 11.225C84.5872 11.6417 84.3455 12.1 84.0955 12.6C83.8622 13.0833 83.6538 13.5417 83.4705 13.975C83.3038 14.3917 83.2205 14.7 83.2205 14.9C83.2205 15.1333 83.3372 15.25 83.5705 15.25C83.8538 15.25 84.1622 15.1083 84.4955 14.825C84.8455 14.5417 85.2205 14.1833 85.6205 13.75C86.0205 13.3 86.4205 12.825 86.8205 12.325C86.8538 12.3583 86.8705 12.4167 86.8705 12.5C86.8705 12.6167 86.8288 12.7333 86.7455 12.85C86.6788 12.95 86.6122 13.0417 86.5455 13.125C86.3788 13.3417 86.1538 13.6167 85.8705 13.95C85.6038 14.2667 85.3288 14.5833 85.0455 14.9C84.7622 15.2 84.5038 15.4417 84.2705 15.625C84.1038 15.7417 83.8872 15.8667 83.6205 16C83.3538 16.1333 83.0872 16.2 82.8205 16.2C82.5205 16.2 82.3122 16.125 82.1955 15.975C82.0788 15.8083 82.0205 15.6083 82.0205 15.375C82.0205 15.1083 82.0705 14.825 82.1705 14.525C82.2705 14.225 82.3788 13.9417 82.4955 13.675C82.6288 13.3917 82.7288 13.1833 82.7955 13.05C83.0955 12.4667 83.3705 11.9167 83.6205 11.4C83.8705 10.8833 84.0455 10.5167 84.1455 10.3C84.1955 10.2 84.2205 10.1167 84.2205 10.05C84.2205 9.93333 84.1288 9.925 83.9455 10.025C83.7622 10.125 83.5372 10.275 83.2705 10.475C83.0205 10.675 82.7872 10.875 82.5705 11.075C82.3538 11.2583 82.2122 11.3833 82.1455 11.45C81.5288 12.1 80.9872 12.825 80.5205 13.625C80.0705 14.4083 79.6872 15.2167 79.3705 16.05C79.1538 16.0667 78.9372 16.125 78.7205 16.225C78.5038 16.325 78.3538 16.375 78.2705 16.375ZM81.8975 24.75C81.2641 24.75 80.6558 24.6 80.0725 24.3C79.4725 24.0167 79.0308 23.575 78.7475 22.975C78.6308 22.7583 78.5558 22.525 78.5225 22.275C78.4891 22.0417 78.4725 21.8083 78.4725 21.575V21.325C78.4725 21.1917 78.4891 21.0667 78.5225 20.95C78.5558 20.8333 78.6475 20.775 78.7975 20.775C78.8308 20.775 78.8475 20.7917 78.8475 20.825C78.8475 20.925 78.8391 21.025 78.8225 21.125C78.8058 21.225 78.7975 21.3333 78.7975 21.45C78.7975 22.2167 79.0475 22.8 79.5475 23.2C80.0308 23.6 80.6391 23.8 81.3725 23.8C81.6725 23.8 81.9808 23.7667 82.2975 23.7C82.6141 23.6333 82.9058 23.5417 83.1725 23.425C84.2391 22.975 85.1641 22.325 85.9475 21.475C86.7475 20.625 87.4391 19.6667 88.0225 18.6C88.6225 17.5333 89.1475 16.4417 89.5975 15.325C90.0641 14.1917 90.4975 13.125 90.8975 12.125C90.5475 12.6917 90.1641 13.2 89.7475 13.65C89.3308 14.0833 88.8641 14.5167 88.3475 14.95C88.0308 15.2167 87.6808 15.4667 87.2975 15.7C86.9308 15.9333 86.5308 16.05 86.0975 16.05C85.9308 16.05 85.8141 16 85.7475 15.9C85.6808 15.7833 85.6475 15.65 85.6475 15.5V15.325C85.7308 14.675 85.9391 14 86.2725 13.3C86.6225 12.6 87.0391 11.9417 87.5225 11.325C88.0058 10.7083 88.4975 10.2083 88.9975 9.825C89.5641 9.39167 90.1891 9.175 90.8725 9.175H93.7475C93.8308 9.175 93.8725 9.20833 93.8725 9.275C93.8725 9.40833 93.7975 9.475 93.6475 9.475C93.4641 9.475 93.2891 9.55 93.1225 9.7C92.9558 9.85 92.8308 9.99167 92.7475 10.125C92.5808 10.3917 92.3641 10.8 92.0975 11.35C91.8308 11.9 91.5391 12.5333 91.2225 13.25C90.9058 13.95 90.5891 14.6667 90.2725 15.4C89.9558 16.1167 89.6641 16.7917 89.3975 17.425C88.9975 18.375 88.5391 19.3 88.0225 20.2C87.5225 21.1167 86.9225 21.9333 86.2225 22.65C85.5391 23.3833 84.7225 23.9583 83.7725 24.375C83.2058 24.625 82.5808 24.75 81.8975 24.75ZM87.1225 15.2C87.3225 15.2 87.5975 15.0583 87.9475 14.775C88.2975 14.475 88.6808 14.1083 89.0975 13.675C89.5141 13.225 89.9058 12.7583 90.2725 12.275C90.6391 11.775 90.9391 11.325 91.1725 10.925C91.4225 10.5083 91.5475 10.1917 91.5475 9.975C91.5475 9.79167 91.4891 9.66667 91.3725 9.6C91.2725 9.53333 91.1391 9.5 90.9725 9.5C90.7058 9.5 90.4225 9.6 90.1225 9.8C89.8225 9.98333 89.5808 10.1667 89.3975 10.35C89.1975 10.5333 88.9558 10.825 88.6725 11.225C88.4058 11.6083 88.1308 12.0333 87.8475 12.5C87.5808 12.9667 87.3558 13.4167 87.1725 13.85C86.9891 14.2833 86.8975 14.6333 86.8975 14.9C86.8975 15.1 86.9725 15.2 87.1225 15.2ZM97.6123 16.05C97.3456 16.05 97.104 16 96.8873 15.9C96.6873 15.7833 96.5873 15.5417 96.5873 15.175C96.5873 14.5917 96.7373 14.0083 97.0373 13.425C97.3373 12.825 97.6456 12.3 97.9623 11.85C98.2456 11.4667 98.5623 11.1083 98.9123 10.775C99.279 10.425 99.6706 10.125 100.087 9.875C100.354 9.70833 100.712 9.53333 101.162 9.35C101.629 9.15 102.021 9.05 102.337 9.05C102.604 9.05 102.837 9.125 103.037 9.275C103.237 9.40833 103.337 9.65833 103.337 10.025C103.337 10.5917 103.187 11.175 102.887 11.775C102.604 12.3583 102.304 12.875 101.987 13.325C101.837 13.525 101.687 13.7167 101.537 13.9C101.387 14.0667 101.221 14.2417 101.037 14.425C101.654 14.425 102.221 14.25 102.737 13.9C103.254 13.5333 103.704 13.0917 104.087 12.575L104.137 12.525C104.187 12.525 104.212 12.575 104.212 12.675C104.212 12.7917 104.179 12.9 104.112 13C103.779 13.4667 103.362 13.8833 102.862 14.25C102.362 14.6 101.796 14.775 101.162 14.775C101.096 14.775 101.029 14.775 100.962 14.775C100.896 14.775 100.829 14.7667 100.762 14.75C99.829 15.6167 98.779 16.05 97.6123 16.05ZM98.2623 15.625C98.4956 15.625 98.7456 15.5417 99.0123 15.375C99.2956 15.2083 99.5123 15.05 99.6623 14.9C99.9456 14.6167 100.204 14.3167 100.437 14C100.671 13.6667 100.887 13.3333 101.087 13C101.321 12.6 101.554 12.125 101.787 11.575C102.021 11.025 102.137 10.5083 102.137 10.025C102.137 9.64167 102.004 9.45 101.737 9.45C101.521 9.45 101.254 9.54167 100.937 9.725C100.637 9.90833 100.412 10.075 100.262 10.225C99.6956 10.8083 99.2206 11.4417 98.8373 12.125C98.6206 12.5083 98.3873 12.9583 98.1373 13.475C97.8873 13.9917 97.7623 14.4667 97.7623 14.9C97.7623 14.9667 97.7623 15.0333 97.7623 15.1C97.779 15.15 97.7956 15.2083 97.8123 15.275C97.879 15.5083 98.029 15.625 98.2623 15.625ZM98.0285 21.65C97.3785 21.65 96.8368 21.5417 96.4035 21.325C95.9535 21.125 95.6535 20.8167 95.5035 20.4C95.4868 20.35 95.4785 20.3 95.4785 20.25C95.4618 20.2 95.4535 20.1417 95.4535 20.075C95.4535 19.825 95.5118 19.5417 95.6285 19.225C95.7452 18.925 95.8702 18.6 96.0035 18.25C96.0535 18.15 96.1118 18.1 96.1785 18.1C96.2952 18.1 96.3285 18.1833 96.2785 18.35C96.1618 18.6 96.1035 18.8667 96.1035 19.15C96.1035 19.7333 96.3618 20.2 96.8785 20.55C97.3785 20.9167 97.9535 21.1 98.6035 21.1C99.1035 21.1 99.5868 20.9833 100.054 20.75C100.837 20.35 101.479 19.8 101.979 19.1C102.479 18.4 102.92 17.6917 103.304 16.975C103.887 15.8583 104.387 14.6917 104.804 13.475C105.237 12.2417 105.695 11.025 106.179 9.825H105.604C105.52 9.825 105.429 9.83333 105.329 9.85C105.229 9.86667 105.137 9.88333 105.054 9.9L105.004 9.875C105.037 9.69167 105.195 9.53333 105.479 9.4C105.779 9.25 106.012 9.175 106.179 9.175H106.479C106.729 8.575 107.02 7.91667 107.354 7.2C107.704 6.48333 108.079 5.76667 108.479 5.05C108.879 4.31667 109.312 3.65 109.779 3.05C110.262 2.45 110.762 1.975 111.279 1.625C112.129 1.025 113.07 0.725 114.104 0.725C114.304 0.725 114.495 0.791666 114.679 0.924999C114.879 1.04167 114.97 1.225 114.954 1.475L114.879 2.375C114.879 2.40833 114.854 2.43333 114.804 2.45C114.754 2.46667 114.72 2.45833 114.704 2.425C114.637 2.09167 114.454 1.85 114.154 1.7C113.87 1.53333 113.537 1.45 113.154 1.45C112.537 1.45 111.97 1.65 111.454 2.05C110.954 2.45 110.412 3.19167 109.829 4.275C109.612 4.69167 109.37 5.18333 109.104 5.75C108.854 6.31667 108.604 6.9 108.354 7.5C108.104 8.1 107.862 8.65833 107.629 9.175H109.429C109.545 9.175 109.662 9.175 109.779 9.175C109.912 9.15833 110.037 9.14167 110.154 9.125C110.154 9.19167 110.104 9.25833 110.004 9.325C109.92 9.375 109.845 9.41667 109.779 9.45C109.362 9.66667 108.97 9.79167 108.604 9.825C108.237 9.84167 107.82 9.84167 107.354 9.825C106.987 10.7417 106.637 11.6167 106.304 12.45C105.987 13.2667 105.637 14.0667 105.254 14.85C104.937 15.55 104.545 16.2917 104.079 17.075C103.612 17.8583 103.079 18.6 102.479 19.3C101.879 20 101.212 20.5667 100.479 21C99.7285 21.4333 98.9118 21.65 98.0285 21.65ZM114.243 16.05C113.743 16.05 113.401 15.9333 113.218 15.7C113.035 15.45 112.943 15.15 112.943 14.8C112.943 14.3333 113.043 13.8333 113.243 13.3C113.46 12.7667 113.635 12.35 113.768 12.05C113.551 12.2833 113.343 12.5083 113.143 12.725C112.943 12.9417 112.801 13.1 112.718 13.2C112.668 13.2667 112.626 13.3 112.593 13.3C112.56 13.3 112.543 13.2583 112.543 13.175C112.543 13.0417 112.585 12.9167 112.668 12.8C112.901 12.5 113.168 12.1833 113.468 11.85C113.768 11.5167 114.06 11.1667 114.343 10.8C114.676 10.1833 115.043 9.46667 115.443 8.65C115.86 7.81667 116.285 6.96667 116.718 6.1C117.168 5.21667 117.601 4.40833 118.018 3.675C118.451 2.925 118.835 2.325 119.168 1.875C119.451 1.75833 119.718 1.60833 119.968 1.425C120.235 1.24167 120.493 1.075 120.743 0.924999C121.01 0.758332 121.285 0.674999 121.568 0.674999C121.751 0.674999 121.885 0.724999 121.968 0.824999C122.068 0.924999 122.135 1.04167 122.168 1.175C122.185 1.225 122.193 1.31667 122.193 1.45C122.193 1.83333 122.06 2.3 121.793 2.85C121.543 3.4 121.243 3.94167 120.893 4.475C120.56 4.99167 120.268 5.41667 120.018 5.75C119.351 6.68333 118.668 7.53333 117.968 8.3C117.268 9.05 116.635 9.68333 116.068 10.2C115.518 10.7 115.118 11.0667 114.868 11.3C114.751 11.5167 114.61 11.8083 114.443 12.175C114.293 12.525 114.16 12.9 114.043 13.3C113.926 13.6833 113.868 14.0417 113.868 14.375C113.868 14.6583 113.935 14.9 114.068 15.1C114.201 15.2833 114.426 15.375 114.743 15.375C114.793 15.375 114.843 15.375 114.893 15.375C114.943 15.375 115.001 15.3667 115.068 15.35C115.351 15.3 115.66 15.1417 115.993 14.875C116.326 14.6083 116.66 14.3 116.993 13.95C117.326 13.6 117.626 13.2667 117.893 12.95C118.01 12.8167 118.118 12.6917 118.218 12.575C118.318 12.4417 118.385 12.35 118.418 12.3C118.535 12.4167 118.526 12.5667 118.393 12.75C118.276 12.9167 118.176 13.0583 118.093 13.175C117.976 13.325 117.81 13.5333 117.593 13.8C117.376 14.05 117.126 14.325 116.843 14.625C116.526 14.9417 116.135 15.2583 115.668 15.575C115.201 15.8917 114.726 16.05 114.243 16.05ZM115.293 10.3C115.81 9.86667 116.46 9.25 117.243 8.45C118.043 7.63333 118.826 6.65 119.593 5.5C119.676 5.36667 119.81 5.14167 119.993 4.825C120.193 4.50833 120.393 4.15 120.593 3.75C120.81 3.33333 120.993 2.93333 121.143 2.55C121.293 2.15 121.368 1.80833 121.368 1.525C121.368 1.25833 121.293 1.125 121.143 1.125C120.96 1.125 120.718 1.28333 120.418 1.6C120.068 1.96667 119.668 2.50833 119.218 3.225C118.785 3.925 118.326 4.70833 117.843 5.575C117.36 6.44167 116.893 7.29167 116.443 8.125C116.01 8.95833 115.626 9.68333 115.293 10.3ZM123.14 6.45C122.907 6.45 122.74 6.375 122.64 6.225C122.573 6.14167 122.54 6.03333 122.54 5.9C122.54 5.63333 122.665 5.41667 122.915 5.25C123.098 5.15 123.265 5.1 123.415 5.1C123.665 5.1 123.84 5.175 123.94 5.325C124.007 5.40833 124.04 5.51667 124.04 5.65C124.04 5.91667 123.907 6.13333 123.64 6.3C123.49 6.4 123.323 6.45 123.14 6.45ZM118.79 16.075C118.623 16.075 118.482 16.0417 118.365 15.975C118.265 15.9083 118.215 15.7833 118.215 15.6C118.215 15.3667 118.273 15.0917 118.39 14.775C118.523 14.4583 118.665 14.1417 118.815 13.825C118.982 13.5083 119.107 13.25 119.19 13.05C119.307 12.8167 119.448 12.5167 119.615 12.15C119.798 11.7667 119.965 11.4083 120.115 11.075C120.282 10.725 120.398 10.4833 120.465 10.35C120.232 10.6 119.948 10.9167 119.615 11.3C119.298 11.6667 118.998 12.025 118.715 12.375C118.432 12.725 118.215 13 118.065 13.2C118.015 13.2667 117.973 13.3 117.94 13.3C117.907 13.3 117.89 13.2583 117.89 13.175C117.89 13.0417 117.932 12.9167 118.015 12.8C118.332 12.4 118.682 11.95 119.065 11.45C119.465 10.95 119.823 10.4917 120.14 10.075C120.457 9.64167 120.657 9.35833 120.74 9.225C120.923 9.19167 121.19 9.14167 121.54 9.075C121.907 9.00833 122.157 8.91667 122.29 8.8C122.34 8.75 122.39 8.725 122.44 8.725C122.473 8.725 122.49 8.75833 122.49 8.825C122.507 8.875 122.49 8.93333 122.44 9C122.34 9.11667 122.165 9.4 121.915 9.85C121.665 10.3 121.398 10.8 121.115 11.35C120.848 11.8833 120.598 12.3667 120.365 12.8C120.132 13.25 119.932 13.6833 119.765 14.1C119.598 14.5167 119.515 14.8167 119.515 15C119.515 15.2333 119.632 15.35 119.865 15.35C120.082 15.35 120.357 15.2167 120.69 14.95C121.04 14.6833 121.39 14.3667 121.74 14C122.09 13.6167 122.398 13.2667 122.665 12.95C122.748 12.85 122.848 12.7333 122.965 12.6C123.098 12.45 123.182 12.3583 123.215 12.325C123.248 12.3583 123.265 12.4167 123.265 12.5C123.248 12.6167 123.207 12.7333 123.14 12.85C123.073 12.95 123.007 13.0417 122.94 13.125C122.59 13.5583 122.207 14.0083 121.79 14.475C121.373 14.925 120.915 15.3083 120.415 15.625C119.915 15.925 119.373 16.075 118.79 16.075ZM116.949 21.65C116.299 21.65 115.758 21.5417 115.324 21.325C114.874 21.125 114.574 20.8167 114.424 20.4C114.408 20.35 114.399 20.3 114.399 20.25C114.383 20.2 114.374 20.1417 114.374 20.075C114.374 19.825 114.433 19.5417 114.549 19.225C114.666 18.925 114.791 18.6 114.924 18.25C114.974 18.15 115.033 18.1 115.099 18.1C115.216 18.1 115.249 18.1833 115.199 18.35C115.083 18.6 115.024 18.8667 115.024 19.15C115.024 19.7333 115.283 20.2 115.799 20.55C116.299 20.9167 116.874 21.1 117.524 21.1C118.024 21.1 118.508 20.9833 118.974 20.75C119.758 20.35 120.399 19.8 120.899 19.1C121.399 18.4 121.841 17.6917 122.224 16.975C122.808 15.8583 123.308 14.6917 123.724 13.475C124.158 12.2417 124.616 11.025 125.099 9.825H124.524C124.441 9.825 124.349 9.83333 124.249 9.85C124.149 9.86667 124.058 9.88333 123.974 9.9L123.924 9.875C123.958 9.69167 124.116 9.53333 124.399 9.4C124.699 9.25 124.933 9.175 125.099 9.175H125.399C125.649 8.575 125.941 7.91667 126.274 7.2C126.624 6.48333 126.999 5.76667 127.399 5.05C127.799 4.31667 128.233 3.65 128.699 3.05C129.183 2.45 129.683 1.975 130.199 1.625C131.049 1.025 131.991 0.725 133.024 0.725C133.224 0.725 133.416 0.791666 133.599 0.924999C133.799 1.04167 133.891 1.225 133.874 1.475L133.799 2.375C133.799 2.40833 133.774 2.43333 133.724 2.45C133.674 2.46667 133.641 2.45833 133.624 2.425C133.558 2.09167 133.374 1.85 133.074 1.7C132.791 1.53333 132.458 1.45 132.074 1.45C131.458 1.45 130.891 1.65 130.374 2.05C129.874 2.45 129.333 3.19167 128.749 4.275C128.533 4.69167 128.291 5.18333 128.024 5.75C127.774 6.31667 127.524 6.9 127.274 7.5C127.024 8.1 126.783 8.65833 126.549 9.175H128.349C128.466 9.175 128.583 9.175 128.699 9.175C128.833 9.15833 128.958 9.14167 129.074 9.125C129.074 9.19167 129.024 9.25833 128.924 9.325C128.841 9.375 128.766 9.41667 128.699 9.45C128.283 9.66667 127.891 9.79167 127.524 9.825C127.158 9.84167 126.741 9.84167 126.274 9.825C125.908 10.7417 125.558 11.6167 125.224 12.45C124.908 13.2667 124.558 14.0667 124.174 14.85C123.858 15.55 123.466 16.2917 122.999 17.075C122.533 17.8583 121.999 18.6 121.399 19.3C120.799 20 120.133 20.5667 119.399 21C118.649 21.4333 117.833 21.65 116.949 21.65ZM128.715 16.2C128.032 16.2 127.557 16.0667 127.29 15.8C127.024 15.5333 126.89 15.2083 126.89 14.825C126.89 14.3417 127.015 13.825 127.265 13.275C127.532 12.725 127.782 12.2583 128.015 11.875C128.282 11.475 128.64 11.0583 129.09 10.625C129.54 10.1917 130.032 9.825 130.565 9.525C131.099 9.225 131.615 9.075 132.115 9.075C132.549 9.075 132.849 9.18333 133.015 9.4C133.182 9.6 133.265 9.84167 133.265 10.125C133.265 10.6417 133.107 11.0667 132.79 11.4C132.49 11.7333 132.115 12.0083 131.665 12.225C131.215 12.425 130.782 12.5917 130.365 12.725C130.115 12.7917 129.824 12.8583 129.49 12.925C129.157 12.9917 128.84 13.025 128.54 13.025C128.424 13.325 128.332 13.6167 128.265 13.9C128.199 14.1833 128.165 14.4417 128.165 14.675C128.165 14.9583 128.232 15.1917 128.365 15.375C128.515 15.5583 128.757 15.65 129.09 15.65C129.224 15.65 129.382 15.6333 129.565 15.6C129.749 15.5667 129.949 15.5167 130.165 15.45C130.665 15.2833 131.157 15.0167 131.64 14.65C132.124 14.2833 132.565 13.8917 132.965 13.475C133.382 13.0417 133.699 12.6833 133.915 12.4C133.965 12.45 133.99 12.5083 133.99 12.575C133.99 12.6583 133.932 12.7917 133.815 12.975C133.482 13.4417 133.049 13.925 132.515 14.425C131.982 14.925 131.39 15.35 130.74 15.7C130.09 16.0333 129.415 16.2 128.715 16.2ZM128.74 12.525C128.957 12.5417 129.199 12.5417 129.465 12.525C129.749 12.4917 130.024 12.4333 130.29 12.35C130.974 12.15 131.465 11.8333 131.765 11.4C132.082 10.95 132.24 10.55 132.24 10.2C132.24 10 132.199 9.83333 132.115 9.7C132.032 9.56667 131.899 9.5 131.715 9.5C131.232 9.5 130.799 9.68333 130.415 10.05C130.032 10.4 129.699 10.8083 129.415 11.275C129.132 11.7417 128.907 12.1583 128.74 12.525ZM136.866 12.825C136.916 12.7083 137.033 12.4083 137.216 11.925C137.399 11.4417 137.624 10.8583 137.891 10.175C138.158 9.475 138.441 8.74167 138.741 7.975C139.041 7.19167 139.324 6.44167 139.591 5.725C139.874 4.99167 140.124 4.35833 140.341 3.825C140.424 3.60833 140.508 3.36667 140.591 3.1C140.691 2.81667 140.766 2.61667 140.816 2.5C141.033 2.45 141.333 2.36667 141.716 2.25C142.099 2.11667 142.458 1.91667 142.791 1.65H142.816C142.866 1.65 142.916 1.71667 142.966 1.85C143.033 1.98333 143.041 2.06667 142.991 2.1C142.924 2.15 142.816 2.3 142.666 2.55C142.516 2.78333 142.374 3.01667 142.241 3.25C142.108 3.48333 142.024 3.63333 141.991 3.7C141.491 4.66667 140.991 5.64167 140.491 6.625C140.008 7.60833 139.549 8.525 139.116 9.375C138.699 10.2083 138.349 10.9167 138.066 11.5C137.783 12.0667 137.608 12.4167 137.541 12.55C137.491 12.65 137.358 12.75 137.141 12.85C136.941 12.9333 136.849 12.925 136.866 12.825ZM136.116 16.15C135.933 16.15 135.758 16.0917 135.591 15.975C135.424 15.8417 135.291 15.7167 135.191 15.6C135.174 15.5667 135.233 15.5 135.366 15.4C135.516 15.2833 135.674 15.175 135.841 15.075C136.024 14.975 136.124 14.9333 136.141 14.95C136.274 15.0167 136.408 15.0917 136.541 15.175C136.674 15.2417 136.816 15.2667 136.966 15.25H137.066C137.149 15.25 137.191 15.275 137.191 15.325C137.191 15.375 137.133 15.4583 137.016 15.575C136.866 15.6917 136.708 15.8167 136.541 15.95C136.391 16.0833 136.249 16.15 136.116 16.15Z" fill="black"/>
</svg>
