<svg width="179" height="43" viewBox="0 0 179 43" fill="none" xmlns="http://www.w3.org/2000/svg">
<path d="M8.261 40L1.254 40.147C1.058 39.559 1.058 38.971 1.254 38.383L5.321 37.844C5.45167 36.178 5.517 34.2507 5.517 32.062V3.152L1.548 2.662C1.41733 2.172 1.41733 1.56767 1.548 0.848999C3.34467 0.979666 5.58233 1.045 8.261 1.045C10.6457 1.045 12.8997 0.995999 15.023 0.897998C15.219 1.486 15.219 2.074 15.023 2.662L10.956 3.25C10.8253 4.49133 10.76 6.40233 10.76 8.983V37.501H26.93L29.233 28.632C29.723 28.5013 30.3273 28.5013 31.046 28.632L30.997 40H8.261ZM42.4488 21.772V37.501L46.4178 38.236C46.4505 38.3993 46.4668 38.5463 46.4668 38.677C46.4995 38.8077 46.5158 38.9547 46.5158 39.118C46.5158 39.2813 46.4995 39.461 46.4668 39.657C46.4668 39.8203 46.4505 40 46.4178 40.196C44.3598 40.098 42.2528 40.049 40.0968 40.049C39.3455 40.049 38.4308 40.049 37.3528 40.049C36.3075 40.0817 35.0988 40.1143 33.7268 40.147C33.6288 39.853 33.5798 39.5427 33.5798 39.216C33.5798 38.922 33.6288 38.5953 33.7268 38.236L37.5978 37.697C37.6632 36.7823 37.7122 35.8187 37.7448 34.806C37.7775 33.7607 37.7938 32.65 37.7938 31.474V21.037C37.7938 18.881 37.7448 17.2803 37.6468 16.235L33.7758 15.745C33.7105 15.5817 33.6778 15.304 33.6778 14.912C33.6778 14.7487 33.6778 14.5853 33.6778 14.422C33.6778 14.2587 33.7105 14.079 33.7758 13.883C35.9972 13.7523 38.8065 13.4093 42.2038 12.854C42.4978 13.1807 42.6612 13.5073 42.6938 13.834C42.5305 14.7487 42.4488 17.3947 42.4488 21.772ZM35.2948 4.279C35.2295 4.11567 35.1968 3.95233 35.1968 3.789C35.1968 3.593 35.1968 3.41333 35.1968 3.25C35.1968 2.368 35.5562 1.66567 36.2748 1.143C37.0262 0.587664 37.9408 0.309997 39.0188 0.309997C40.0315 0.309997 40.8482 0.620331 41.4688 1.241C42.1222 1.829 42.4488 2.64566 42.4488 3.691C42.4488 4.54033 42.0732 5.22633 41.3218 5.749C40.6032 6.27166 39.6722 6.533 38.5288 6.533C37.7448 6.533 37.0425 6.337 36.4218 5.945C35.8338 5.553 35.4582 4.99767 35.2948 4.279ZM61.4888 42.156H60.4598L50.3168 16.235L47.2298 15.647C47.0991 15.1243 47.0991 14.471 47.2298 13.687C49.0264 13.8177 50.9701 13.883 53.0608 13.883C54.9228 13.883 56.8991 13.834 58.9898 13.736C59.1858 14.3893 59.1858 15.0263 58.9898 15.647L55.9028 16.235L59.8718 27.505C61.0151 30.7717 61.7664 33.14 62.1258 34.61H62.2238C63.0078 31.8007 63.7754 29.514 64.5268 27.75L68.7408 16.039L64.9188 15.647C64.7881 15.1243 64.7881 14.471 64.9188 13.687C66.7154 13.8177 68.4304 13.883 70.0638 13.883C71.4358 13.883 73.1834 13.834 75.3068 13.736C75.5028 14.3893 75.5028 15.0263 75.3068 15.647L71.6318 16.186L61.4888 42.156ZM97.1466 26.182H81.7606C81.4666 34.512 83.9656 38.677 89.2576 38.677C91.5116 38.677 93.8146 37.6807 96.1666 35.688C96.6566 35.982 97.0323 36.4883 97.2936 37.207C95.0396 39.7223 92.1813 40.98 88.7186 40.98C80.748 40.98 76.7626 36.2923 76.7626 26.917C76.7626 22.4743 77.9386 19.028 80.2906 16.578C82.6426 14.0953 85.3866 12.854 88.5226 12.854C91.9526 12.854 94.419 14.0463 95.9216 16.431C97.4243 18.8157 98.1756 21.919 98.1756 25.741C97.849 26.0023 97.506 26.1493 97.1466 26.182ZM88.4246 14.814C86.726 14.814 85.2723 15.696 84.0636 17.46C82.8876 19.224 82.169 21.478 81.9076 24.222H87.9836C90.401 24.222 92.1323 24.075 93.1776 23.781C93.1776 21.1023 92.7693 18.9463 91.9526 17.313C91.136 15.647 89.96 14.814 88.4246 14.814ZM122.156 22.507C122.156 19.9917 121.813 18.2277 121.127 17.215C120.473 16.2023 119.363 15.696 117.795 15.696C115.377 15.696 112.944 17.509 110.494 21.135V37.501L114.463 38.236C114.593 38.7587 114.593 39.412 114.463 40.196C112.405 40.098 110.298 40.049 108.142 40.049C106.639 40.049 104.516 40.0817 101.772 40.147C101.576 39.5263 101.576 38.8893 101.772 38.236L105.643 37.697C105.773 35.9003 105.839 33.826 105.839 31.474V18.048C105.839 17.3947 105.79 16.7903 105.692 16.235L101.821 15.745C101.69 15.255 101.69 14.6343 101.821 13.883C104.075 13.7197 106.884 13.3767 110.249 12.854C110.543 13.1807 110.706 13.5073 110.739 13.834C110.575 14.6833 110.494 16.137 110.494 18.195C113.074 14.6343 115.982 12.854 119.216 12.854C124.279 12.854 126.811 15.255 126.811 20.057V37.501L130.78 38.236C130.91 38.7587 130.91 39.412 130.78 40.196C128.722 40.098 126.615 40.049 124.459 40.049C122.956 40.049 120.833 40.0817 118.089 40.147C117.893 39.5263 117.893 38.8893 118.089 38.236L121.96 37.697C122.09 35.9003 122.156 33.826 122.156 31.474V22.507ZM154.09 26.182H138.704C138.41 34.512 140.909 38.677 146.201 38.677C148.455 38.677 150.758 37.6807 153.11 35.688C153.6 35.982 153.976 36.4883 154.237 37.207C151.983 39.7223 149.125 40.98 145.662 40.98C137.691 40.98 133.706 36.2923 133.706 26.917C133.706 22.4743 134.882 19.028 137.234 16.578C139.586 14.0953 142.33 12.854 145.466 12.854C148.896 12.854 151.362 14.0463 152.865 16.431C154.368 18.8157 155.119 21.919 155.119 25.741C154.792 26.0023 154.449 26.1493 154.09 26.182ZM145.368 14.814C143.669 14.814 142.216 15.696 141.007 17.46C139.831 19.224 139.112 21.478 138.851 24.222H144.927C147.344 24.222 149.076 24.075 150.121 23.781C150.121 21.1023 149.713 18.9463 148.896 17.313C148.079 15.647 146.903 14.814 145.368 14.814ZM167.682 13.834L167.584 18.881C168.401 17.3783 169.528 16.0063 170.965 14.765C172.435 13.491 173.823 12.854 175.13 12.854C176.143 12.854 177.041 12.9683 177.825 13.197C178.086 13.6217 178.217 14.177 178.217 14.863C178.217 15.941 177.988 17.019 177.531 18.097C176.355 17.7703 175.228 17.607 174.15 17.607C171.471 17.607 169.266 18.9137 167.535 21.527L167.437 30.102V37.501L172.876 38.236C173.007 38.7587 173.007 39.412 172.876 40.196C170.818 40.098 168.466 40.049 165.82 40.049C163.827 40.049 161.459 40.0817 158.715 40.147C158.519 39.5263 158.519 38.8893 158.715 38.236L162.586 37.697C162.717 35.9003 162.782 33.826 162.782 31.474V18.048C162.782 17.3947 162.733 16.7903 162.635 16.235L158.764 15.745C158.633 15.255 158.633 14.6343 158.764 13.883C161.018 13.7197 163.827 13.3767 167.192 12.854C167.486 13.1807 167.649 13.5073 167.682 13.834Z" fill="black"/>
</svg>
